<?xml version="1.0" encoding="UTF-8"?>
<svg xmlns="http://www.w3.org/2000/svg" width="78" height="33" viewBox="0 0 78 33" fill="none">
  <path d="M3.22188 26.082H0.337491C0.191815 26.082 0.133545 26.1694 0.133545 26.286V32.317C0.133545 32.4626 0.220951 32.5209 0.337491 32.5209H1.15328C1.26982 32.5209 1.35722 32.4335 1.35722 32.317V29.9279H2.75571C2.90139 29.9279 2.95966 29.8405 2.95966 29.7239V28.9373C2.95966 28.8207 2.87226 28.7333 2.75571 28.7333H1.38636V27.3057H3.22188C3.33842 27.3057 3.42582 27.2183 3.42582 27.1018V26.3151C3.42582 26.1694 3.33842 26.082 3.22188 26.082Z" fill="#00D2B5"></path>
  <path d="M5.46529 26.082H4.6495C4.50383 26.082 4.44556 26.1694 4.44556 26.286V32.317C4.44556 32.4626 4.53296 32.5209 4.6495 32.5209H5.46529C5.58183 32.5209 5.66924 32.4335 5.66924 32.317V26.3151C5.66924 26.1694 5.58183 26.082 5.46529 26.082Z" fill="#00D2B5"></path>
  <path d="M9.74825 26.082H6.86386C6.74732 26.082 6.65991 26.1694 6.65991 26.286V32.317C6.65991 32.4335 6.74732 32.5209 6.86386 32.5209H9.74825C9.89392 32.5209 9.95219 32.4335 9.95219 32.317V31.5303C9.95219 31.3846 9.86479 31.3264 9.74825 31.3264H7.88359V29.9279H9.28208C9.39862 29.9279 9.48603 29.8405 9.48603 29.6948V28.9081C9.48603 28.7625 9.39862 28.6751 9.28208 28.6751H7.88359V27.3057H9.74825C9.89392 27.3057 9.95219 27.2183 9.95219 27.0726V26.286C9.95219 26.1694 9.89392 26.082 9.74825 26.082Z" fill="#00D2B5"></path>
  <path d="M13.8855 26.082H11.0011C10.8845 26.082 10.7971 26.1694 10.7971 26.286V27.0726C10.7971 27.1892 10.8845 27.2766 11.0011 27.2766H11.8169V32.317C11.8169 32.4626 11.9043 32.5209 12.0208 32.5209H12.8366C12.9823 32.5209 13.0405 32.4335 13.0405 32.317V27.3057H13.8563C14.002 27.3057 14.0603 27.2183 14.0603 27.1018V26.3151C14.1185 26.1694 14.0311 26.082 13.8855 26.082Z" fill="#00D2B5"></path>
  <path d="M17.0321 26.082H16.1581C15.3714 26.082 14.9344 26.5191 14.9344 27.3057V29.1704C14.9344 29.3452 15.0218 29.4908 15.1966 29.5491L16.9739 30.1318V31.1224C16.9739 31.2681 16.9156 31.3555 16.7408 31.3555H16.362C16.2164 31.3555 16.129 31.2972 16.129 31.1224V30.5106C16.129 30.3649 16.0415 30.3066 15.925 30.3066H15.1092C14.9635 30.3066 14.9053 30.394 14.9053 30.5106V31.3264C14.9053 32.113 15.3423 32.55 16.129 32.55H17.003C17.7897 32.55 18.2267 32.113 18.2267 31.3264V29.52C18.2267 29.3452 18.1393 29.2286 17.9645 29.1412L16.1581 28.5585V27.5388C16.1581 27.3931 16.2455 27.3057 16.3912 27.3057H16.7699C16.9156 27.3057 17.003 27.364 17.003 27.5388V28.1506C17.003 28.2672 17.0904 28.3546 17.207 28.3546H18.0227C18.1684 28.3546 18.2267 28.2672 18.2267 28.1506V27.3057C18.2558 26.5191 17.8188 26.082 17.0321 26.082Z" fill="#00D2B5"></path>
  <path d="M21.4897 29.1121L22.8008 26.4025C22.859 26.286 22.8299 26.2277 22.8008 26.1694C22.7716 26.1403 22.7133 26.082 22.5968 26.082H21.781C21.6645 26.082 21.5771 26.1403 21.5188 26.2568L20.4991 28.3837V26.3442C20.4991 26.1986 20.4117 26.1112 20.266 26.1112H19.5085C19.3628 26.1112 19.2754 26.1986 19.2754 26.3442V32.317C19.2754 32.4626 19.3628 32.55 19.5085 32.55H20.2369C20.3825 32.55 20.4699 32.4626 20.4699 32.317V30.598L20.6739 30.2192L21.5771 32.3752C21.6353 32.4918 21.7227 32.55 21.8393 32.55H22.6551C22.7716 32.55 22.8299 32.4918 22.859 32.4626C22.8882 32.4335 22.9173 32.3461 22.859 32.2587L21.4897 29.1121Z" fill="#00D2B5"></path>
  <path d="M25.5103 26.082H24.6363C23.8496 26.082 23.4126 26.5191 23.4126 27.3057V31.3264C23.4126 32.113 23.8496 32.55 24.6363 32.55H25.5103C26.297 32.55 26.734 32.113 26.734 31.3264V27.3057C26.734 26.5191 26.297 26.082 25.5103 26.082ZM25.5395 31.1224C25.5395 31.2681 25.4812 31.3555 25.3064 31.3555H24.8402C24.6945 31.3555 24.6071 31.2972 24.6071 31.1224V27.5097C24.6071 27.364 24.6654 27.2766 24.8402 27.2766H25.3064C25.4521 27.2766 25.5395 27.3348 25.5395 27.5097V31.1224Z" fill="#00D2B5"></path>
  <path d="M30.8129 26.082H27.9286C27.812 26.082 27.7246 26.1694 27.7246 26.286V32.317C27.7246 32.4335 27.812 32.5209 27.9286 32.5209H30.8129C30.9586 32.5209 31.0169 32.4335 31.0169 32.317V31.5303C31.0169 31.3846 30.9295 31.3264 30.8129 31.3264H28.9483V29.9279H30.3468C30.4633 29.9279 30.5507 29.8405 30.5507 29.6948V28.9081C30.5507 28.7625 30.4633 28.6751 30.3468 28.6751H28.9483V27.3057H30.8129C30.9586 27.3057 31.0169 27.2183 31.0169 27.0726V26.286C31.0169 26.1694 30.9586 26.082 30.8129 26.082Z" fill="#00D2B5"></path>
  <path d="M34.1052 26.082H32.1532C32.0366 26.082 31.9492 26.1694 31.9492 26.286V32.317C31.9492 32.4335 32.0366 32.5209 32.1532 32.5209H32.969C33.0855 32.5209 33.1729 32.4335 33.1729 32.317V30.4232H33.5517L34.047 32.3461C34.0761 32.4626 34.1635 32.5209 34.28 32.5209H35.0958C35.1832 32.5209 35.2415 32.4918 35.2706 32.4626C35.2998 32.4335 35.3289 32.3752 35.2998 32.2878L34.7753 30.3066C35.1541 30.1027 35.3289 29.7531 35.3289 29.2286V27.3057C35.3289 26.5191 34.8919 26.082 34.1052 26.082ZM34.0761 28.9956C34.0761 29.1412 34.0178 29.2286 33.843 29.2286H33.1729V27.3057H33.843C33.9887 27.3057 34.0761 27.364 34.0761 27.5388V28.9956Z" fill="#00D2B5"></path>
  <path d="M37.3391 26.082H36.5233C36.3776 26.082 36.3193 26.1694 36.3193 26.286V32.317C36.3193 32.4626 36.4067 32.5209 36.5233 32.5209H37.3391C37.4556 32.5209 37.543 32.4335 37.543 32.317V26.3151C37.5721 26.1694 37.4847 26.082 37.3391 26.082Z" fill="#00D2B5"></path>
  <path d="M41.6511 26.082H38.7667C38.6502 26.082 38.5627 26.1694 38.5627 26.286V32.317C38.5627 32.4335 38.6502 32.5209 38.7667 32.5209H41.6511C41.7968 32.5209 41.855 32.4335 41.855 32.317V31.5303C41.855 31.3846 41.7676 31.3264 41.6511 31.3264H39.7864V29.9279H41.1849C41.3015 29.9279 41.3889 29.8405 41.3889 29.6948V28.9081C41.3889 28.7625 41.3015 28.6751 41.1849 28.6751H39.7864V27.3057H41.6511C41.7968 27.3057 41.855 27.2183 41.855 27.0726V26.286C41.855 26.1694 41.7676 26.082 41.6511 26.082Z" fill="#00D2B5"></path>
  <path d="M44.9436 26.082H42.9915C42.875 26.082 42.7876 26.1694 42.7876 26.286V32.317C42.7876 32.4335 42.875 32.5209 42.9915 32.5209H43.8073C43.9239 32.5209 44.0113 32.4335 44.0113 32.317V30.4232H44.39L44.8853 32.3461C44.9145 32.4626 45.0019 32.5209 45.1184 32.5209H45.9342C46.0216 32.5209 46.0799 32.4918 46.109 32.4626C46.1381 32.4335 46.1673 32.3752 46.1381 32.2878L45.6137 30.3066C45.9925 30.1027 46.1673 29.7531 46.1673 29.2286V27.3057C46.1673 26.5191 45.7303 26.082 44.9436 26.082ZM44.9145 28.9956C44.9145 29.1412 44.8562 29.2286 44.6814 29.2286H44.0113V27.3057H44.6814C44.8271 27.3057 44.9145 27.364 44.9145 27.5388V28.9956Z" fill="#00D2B5"></path>
  <path d="M49.2555 26.082H48.3815C47.5948 26.082 47.1578 26.5191 47.1578 27.3057V29.1704C47.1578 29.3452 47.2452 29.4908 47.42 29.5491L49.1973 30.1318V31.1224C49.1973 31.2681 49.139 31.3555 48.9642 31.3555H48.5854C48.4397 31.3555 48.3523 31.2972 48.3523 31.1224V30.5106C48.3523 30.3649 48.2649 30.3066 48.1484 30.3066H47.3326C47.1869 30.3066 47.1287 30.394 47.1287 30.5106V31.3264C47.1287 32.113 47.5657 32.55 48.3523 32.55H49.2264C50.013 32.55 50.4501 32.113 50.4501 31.3264V29.52C50.4501 29.3452 50.3627 29.2286 50.1879 29.1412L48.3815 28.5585V27.5388C48.3815 27.3931 48.4397 27.3057 48.6146 27.3057H48.9933C49.139 27.3057 49.2264 27.364 49.2264 27.5388V28.1506C49.2264 28.2672 49.3138 28.3546 49.4303 28.3546H50.2461C50.3918 28.3546 50.4501 28.2672 50.4501 28.1506V27.3057C50.4501 26.5191 50.013 26.082 49.2555 26.082Z" fill="#00D2B5"></path>
  <path d="M52.4021 31.3267H51.7028C51.5571 31.3267 51.4697 31.4141 51.4697 31.5597V32.2881C51.4697 32.4338 51.5571 32.5212 51.7028 32.5212H52.4021C52.5477 32.5212 52.6351 32.4338 52.6351 32.2881V31.5597C52.6643 31.4141 52.5477 31.3267 52.4021 31.3267Z" fill="#00D2B5"></path>
  <path d="M56.9473 26.0824H56.1315C55.9858 26.0824 55.9276 26.1698 55.9276 26.2863V29.1998L54.8787 26.228C54.8496 26.1115 54.7622 26.0532 54.6456 26.0532H53.859C53.7424 26.0532 53.655 26.1406 53.655 26.2572V32.2882C53.655 32.4047 53.7424 32.4921 53.859 32.4921H54.6748C54.8204 32.4921 54.8787 32.4047 54.8787 32.2882V29.3746L55.9276 32.3464C55.9567 32.463 56.0441 32.5212 56.1607 32.5212H56.9473C57.0638 32.5212 57.1513 32.4338 57.1513 32.3173V26.3154C57.1513 26.1698 57.0638 26.0824 56.9473 26.0824Z" fill="#00D2B5"></path>
  <path d="M61.1718 31.3265H59.3946V26.3153C59.3946 26.1696 59.3072 26.1113 59.1906 26.1113H58.3748C58.2583 26.1113 58.1709 26.1987 58.1709 26.3153V32.3463C58.1709 32.4919 58.2583 32.5502 58.3748 32.5502H61.1718C61.3175 32.5502 61.3758 32.4628 61.3758 32.3463V31.5596C61.3758 31.4139 61.2884 31.3265 61.1718 31.3265Z" fill="#00D2B5"></path>
  <path d="M70.2621 17.1377C69.4463 17.1377 68.6014 17.2833 67.8147 17.5456L65.076 11.9516C65.0469 11.8933 64.9886 11.8642 64.9303 11.8642C64.8721 11.8642 64.8138 11.8933 64.7846 11.9225L63.5027 13.4666C63.4444 13.5249 63.4444 13.6123 63.4736 13.6706L63.9106 14.5446L58.2292 21.5371H43.312V2.71573C43.312 2.65746 43.2829 2.59919 43.2246 2.54092L40.1654 0.96762C40.078 0.938485 39.9906 0.938485 39.9323 1.02589L38.7378 2.48265C38.7086 2.51179 38.6795 2.57006 38.7086 2.62833C38.7086 2.6866 38.7669 2.71573 38.796 2.74487L41.156 3.93941V8.86326L26.7341 10.8736L24.7237 4.37644H25.423C25.4812 4.37644 25.5395 4.34731 25.5687 4.31817L27.0837 2.51179C27.142 2.45352 27.142 2.39525 27.1128 2.30784C27.0546 2.24957 26.9963 2.22043 26.938 2.22043H21.0527C20.9944 2.22043 20.9653 2.24957 20.9362 2.27871C20.907 2.30784 20.8779 2.36611 20.8779 2.39525V4.20163C20.8779 4.28903 20.9653 4.37644 21.0527 4.37644H22.4512L24.6946 11.3689L22.2764 14.3407C20.6739 13.2627 18.7801 12.7091 16.8572 12.7091C11.4381 12.7091 7.00952 17.1377 7.00952 22.6151C7.00952 22.9064 7.00952 23.1687 7.03866 23.46C7.03866 23.4891 7.03866 23.4891 7.03866 23.5183C7.06779 23.6057 7.1552 23.6931 7.2426 23.7222H7.27174H7.30087H8.90331H8.93245H8.96158C9.07812 23.6931 9.16553 23.6057 9.16553 23.4891C9.16553 23.46 9.16553 23.46 9.16553 23.4309C9.13639 23.1687 9.13639 22.9064 9.13639 22.6442C9.13639 18.3905 12.5743 14.9234 16.8281 14.9234C18.2557 14.9234 19.6542 15.3313 20.8779 16.0888L17.9061 19.6724L15.9249 22.0615C15.8666 22.1198 15.8666 22.2072 15.8958 22.2655L16.6533 23.5765C16.6824 23.6348 16.7407 23.664 16.799 23.664H59.1324C59.1907 23.664 59.249 23.6348 59.2781 23.6057L64.9303 16.6424L65.8627 18.507C63.8232 19.9638 62.5995 22.2946 62.5995 24.8002C62.5995 29.0248 66.0375 32.4919 70.2329 32.4919C74.4575 32.4919 77.8664 29.054 77.8664 24.8002C77.8955 20.5756 74.4575 17.1377 70.2621 17.1377ZM19.2463 21.5079L22.5677 17.4582C23.5875 18.5944 24.2284 19.9929 24.4615 21.5079H19.2463ZM26.6175 21.5079C26.3844 19.3519 25.4521 17.3416 23.9371 15.7683L25.4521 13.9328L27.7538 21.5371H26.6175V21.5079ZM41.156 21.5079H30.0263L27.375 12.9713L41.156 11.0484V21.5079ZM70.2621 30.3359C67.232 30.3359 64.7846 27.8594 64.7846 24.8294C64.7846 23.1687 65.5713 21.5662 66.8533 20.5173L69.388 25.6451C69.4171 25.7034 69.4463 25.7326 69.5046 25.7326C69.5628 25.7326 69.592 25.7326 69.6502 25.7034L71.1944 24.742C71.2818 24.6837 71.3109 24.5963 71.2527 24.5089L68.7762 19.4976C69.2715 19.3519 69.7668 19.2937 70.2621 19.2937C73.2921 19.2937 75.7395 21.7702 75.7395 24.8002C75.7395 27.8594 73.2921 30.3359 70.2621 30.3359Z" fill="#00D2B5"></path>
  <path d="M61.9296 1.8125H50.4503C50.3629 1.8125 50.2463 1.87077 50.2172 1.92904L45.6721 7.37733C45.6139 7.4356 45.5847 7.55214 45.5847 7.63954V19.1188C45.5847 19.2062 45.643 19.2645 45.7304 19.2645H57.2388C57.3262 19.2645 57.4136 19.2062 57.4719 19.148L61.9878 13.6123C62.0461 13.554 62.0753 13.4374 62.0753 13.35V1.95818C62.0753 1.87077 62.017 1.8125 61.9296 1.8125ZM48.5856 6.76549L51.0913 3.79369C51.1495 3.73542 51.2369 3.67715 51.3244 3.67715H53.8591L51.1787 6.88203H48.6439C48.5565 6.88203 48.5274 6.82376 48.5856 6.76549ZM56.0151 17.225C56.0151 17.3124 55.9569 17.3707 55.8694 17.3707H47.5659C47.4785 17.3707 47.4202 17.3124 47.4202 17.225V8.89236C47.4202 8.80495 47.4785 8.74668 47.5659 8.74668H50.6251V10.6696L50.8873 10.4074L51.2952 10.8153L51.7031 10.4074L52.111 10.8153L52.5189 10.4074L52.8103 10.6987V8.77582H55.8986C55.986 8.77582 56.0443 8.83409 56.0443 8.92149V17.225H56.0151ZM56.5978 6.76549C56.5396 6.82376 56.423 6.88203 56.3647 6.88203H53.9465L56.5104 3.67715H59.0161C59.1035 3.67715 59.1326 3.73542 59.0743 3.79369L56.5978 6.76549ZM60.2106 12.6799C60.2106 12.7673 60.1815 12.8839 60.1232 12.9422L57.9672 15.5935C57.9089 15.6517 57.8798 15.6517 57.8798 15.5643V8.30965C57.8798 8.22225 57.9089 8.10571 57.9672 8.04744L60.1232 5.48354C60.1815 5.42527 60.2106 5.42527 60.2106 5.51267V12.6799Z" fill="#00D2B5"></path>
</svg>
