<?xml version="1.0" encoding="UTF-8"?><svg id="Layer_2" xmlns="http://www.w3.org/2000/svg" viewBox="0 0 453.41 452.94"><defs><style>.cls-1{fill:#fff;}.cls-2{fill:#203464;}.cls-3{fill:#81cee7;}</style></defs><g id="Layer_1-2"><g><path class="cls-1" d="M453.16,.25V452.69H.25V.25H453.16Zm-9.44,130.11c1.65-.16,1.64-.27,1.16-1.81-.03-.12-.11-.24-.08-.34,.35-1.5-.8-1.61-1.73-1.76-.76-.13-1.58-.09-2.34,.05-7.37,1.3-14.75,2.57-22.08,4.02-1.72,.34-3.37,1.24-4.94,2.09-.51,.27-1,1.3-.88,1.84,.14,.6,.9,1.22,1.54,1.52,.72,.33,1.6,.3,2.7,.47,2.21-.46,4.66-1.01,7.11-1.49,6.58-1.26,12.81-3.94,19.54-4.59Zm-5.45,37.19c1.05-.23,1.23-.71,.45-1.41-.65-.59-1.41-1.17-2.23-1.46-4.14-1.43-8.29-2.84-12.48-4.1-1.15-.35-2.48-.38-3.69-.22-1.44,.18-1.86,1.84-.8,2.86,.47,.44,1.09,.77,1.7,1,.98,.38,1.99,.7,3.02,.94,4.06,.96,8.14,1.88,12.21,2.82,.03-.09,.05-.17,.07-.26,.59-.05,1.19-.04,1.75-.17Zm-8.1-75.34c.2-.21,.19-.63,.27-.95-.32-.08-.68-.29-.96-.21-1.59,.42-3.25,.7-4.71,1.41-5.11,2.49-10.17,5.09-14.61,8.75-3.22,2.66-6.64,4.95-10.79,6.04-1.28,.33-2.45,1.19-3.56,1.96-.73,.51-1.22,1.43-.64,2.27,.44,.62,1.26,.98,1.97,1.5,1.86-.72,3.62-1.13,5.1-2.03,8.06-4.88,16.07-9.82,24.02-14.88,1.51-.96,2.64-2.53,3.91-3.86Zm-18.94,101.58c.43-5.97,.37-11.93-.39-17.87-1.21-9.47-4.48-18.24-8.93-26.62-4.51-8.51-9.92-16.47-15.29-24.45-3.91-5.81-8.62-10.76-14.82-14.22-3.49-1.95-6.22-4.77-8.3-8.19-1.22-2.01-2.39-4.06-3.46-6.15-2.9-5.65-6.11-11.13-10.62-15.63-3.69-3.68-7.52-7.28-11.65-10.44-8.48-6.5-17.36-12.44-26.86-17.38-6.78-3.52-13.86-4.34-21.2-1.88-3.38,1.14-6.75,2.29-10.12,3.47-6.41,2.24-12.84,2.51-19.23,.04-2.82-1.09-5.51-2.47-8.3-3.63-1.66-.69-2.86-1.55-2.42-3.59,.04-.18-.06-.39-.09-.58-.05-.32-.12-.63-.2-.95-1.68-6.42-9.69-12.61-18.24-7.34-1.36,.83-2.64,1.8-3.87,2.84-1.23,1.05-2.41,2.16-3.55,3.28-5.4,5.3-9.64,11.47-13.08,18.19-.8,1.56-.86,3.12-.31,4.79,1.55,4.76,4.88,7.66,9.53,9.15,2.81,.9,5.63,1.04,8.38-.28,1.56-.75,2.25-.76,3.43,.5,.56,.61,1.06,1.33,1.43,2.09,.12,.26,.24,.51,.33,.77,.95,2.57,.49,5.11-.53,7.57-.82,1.99-1.77,3.94-2.53,5.95-1.87,5-1.12,9.63,2.14,13.86,.25,.32,.38,.94,.26,1.31-.68,2-.71,4.01-.28,6.04,.8,3.8,2.99,6.77,5.98,9.05,3.74,2.85,7.66,5.48,11.55,8.13,5.68,3.87,11.45,7.6,17.09,11.52,1.92,1.34,3.99,2.29,6.12,3.07,1.89,.69,3.83,1.26,5.78,1.82,2.66,.79,5.25,1.75,7.8,2.84,2.19,.94,4.34,1.97,6.49,3.07-.68,1.68-.58,3.16,.1,4.49,.22,.43,.5,.84,.84,1.24,.76,.9,1.62,1.72,2.49,2.51,2.8,2.56,3.62,5.75,2.83,9.33-.67,2.97-1.52,5.92-2.48,8.82-.09,.26-.17,.53-.25,.79-1.4,4.75-1.13,9.31,1.56,13.69,.65,1.07,1.12,2.24,1.65,3.38,1.34,2.94,1.23,5.86-.2,8.74-.3,.6-.54,1.23-.89,1.79-2.51,3.97-2.71,8.31-1.93,12.74,1.57,8.95,4.62,17.5,7.54,26.06,1.22,3.58,3.36,6.66,6.86,8.53,5.33,2.86,10.48,1.09,12.69-4.52,.79-2,1.32-4.11,1.72-6.22,1.05-5.59,3.06-10.69,6.89-14.99,.94-1.05,1.38-1.25,2.48-.42,.89,.67,1.78,1.51,2.27,2.48,1.44,2.78,2.74,5.64,3.97,8.52,1.4,3.3,2.78,6.58,5.26,9.26,3.65,3.96,8.62,4.4,12.87,1.11,1.96-1.52,3.55-3.4,4.52-5.65,1.15-2.66,1.97-5.45,3.02-8.15,1.16-2.94,2.31-5.9,3.68-8.75,.75-1.56,2.06-1.74,3.6-.87,1.66,.93,2.86,2.34,3.67,4.03,.78,1.66,1.39,3.41,2.09,5.11,.95,2.27,1.72,4.65,2.92,6.78,1.61,2.84,4.23,4.22,7.57,4.08,2.96-.13,5.47-1.31,7.62-3.28,2.88-2.65,4.43-6.1,5.37-9.78,3.43-13.5,6.65-27.05,7.63-41Zm-6.67-129.87c.16-.28,.02-.72,.02-1.09-.37,.07-.76,.07-1.1,.2-.36,.14-.71,.36-.99,.62-1.85,1.76-3.72,3.49-5.5,5.31-5.18,5.29-9.7,11.22-15.38,16.05-.87,.74-1.38,1.97-1.89,3.05-.32,.67-.14,1.45,.74,1.69,.6,.17,1.24,.19,2.17,.33,.15-.19,.66-.51,.64-.8-.08-1.18,.75-1.71,1.41-2.42,5.83-6.26,11.67-12.5,17.41-18.84,1.05-1.16,1.7-2.7,2.47-4.1Zm-30.78-18.59c0-.87-.62-1.16-1.24-.57-.77,.75-1.44,1.64-2.04,2.54-1.42,2.11-2.76,4.28-4.16,6.41-1.49,2.26-3.05,4.47-4.49,6.76-.36,.56-.64,1.36-.55,1.99,.34,2.16-.09,4.2-.64,6.25-.11,.42-.11,.86-.13,1.03,0,.38-.04,.51,0,.61,.3,.67,.62,1.33,.93,1.99,.47-.4,1.08-.72,1.38-1.23,4.25-7.17,7.8-14.68,10.55-22.55,.35-1,.37-2.15,.39-3.23Zm-81.3,210.61c.21-1.32-.3-2.66-1.05-2.76-1.4-.18-1.65,1.02-1.94,1.94-2.59,8.18-5.21,16.35-7.67,24.57-1.71,5.74-3.35,11.51-4.14,17.49-.61,4.62-1.11,9.3-2.22,13.81-1.86,7.53-4.14,14.96-6.29,22.41-2.59,9.02-4.22,18.18-4.55,28.1,.12,1.34,.26,3.22,.47,5.09,.03,.32,.36,.61,.56,.91,.2-.25,.5-.47,.6-.76,.4-1.14,.86-2.29,1.08-3.47,.86-4.47,1.57-8.96,2.46-13.42,2.98-15.13,6.73-30.07,10.91-44.9,3.51-12.45,7.35-24.81,9.83-37.53,.74-3.81,1.33-7.65,1.95-11.48Zm-16.37-24.89c5.25-4.63,6.36-9.33,3.74-15.83-.29-.72-.5-1.49-.67-2.25-.83-3.75-1.5-7.53-2.48-11.24-.5-1.89-1.58-3.63-2.32-5.46-.17-.41-.22-1.07,0-1.38,.74-1.04,1.59-2.03,2.48-2.95,1.74-1.81,2.67-3.93,2.25-6.41-.65-3.87-2.45-7.09-5.44-9.76-5.82-5.2-12.27-9.53-18.56-14.1-2.57-1.86-5.01-3.9-7.51-5.86-1.57-1.23-3.07-2.57-4.73-3.65-2-1.3-4.09-2.49-6.24-3.51-1.86-.89-3.85-1.72-5.98-.79-2.54,1.12-2.59,1.14-4.6-.76-.09-.08-.17-.17-.25-.24-2.26-2.08-5.01-3.28-7.98-3.22-3.44,.07-6.65,1.16-9.27,3.53-.18,.16-.35,.32-.52,.49-.37,.37-.99,.51-1.52,.69-1.1,.36-2.26,.57-3.32,1.02-1.33,.56-2.55,1.39-3.89,1.91-1.89,.74-3.42,1.86-4.72,3.41-.36,.44-.97,.75-1.53,.94-1.22,.42-2.57,.54-3.7,1.11-3.78,1.9-7.46,4-11.23,5.93-4.37,2.24-8.31,5.06-11.81,8.5-4.81,4.73-10.17,8.69-15.98,12.16-4.75,2.83-9.48,5.8-13.77,9.26-9.5,7.66-18.75,15.65-28.07,23.55-3.15,2.67-6.33,5.31-10.13,7.01-1.8,.81-3.31,1.95-4.62,3.37-7.86,8.55-16.44,16.42-23.46,25.77-3.39,4.5-7.57,8.39-11.26,12.68-3.39,3.92-6.45,8.13-9.91,11.98-5.87,6.54-10.81,13.77-16.06,20.78-.14,.19-.31,.39-.35,.6-.04,.24-.01,.56,.12,.74,.09,.11,.49,.11,.64,.01,.48-.34,.95-.71,1.35-1.13,4.07-4.32,8.16-8.61,12.16-12.98,3.23-3.54,6.55-7.02,9.45-10.81,3.2-4.16,6.06-8.5,9.77-12.33,8.16-8.39,15.84-17.23,23.72-25.89,3.23-3.56,6.65-6.84,11.03-9.06,7.09-3.6,13.37-8.42,19.07-13.91,5.05-4.86,10.2-9.54,16.29-13.09,5.48-3.2,10.45-7.09,15.2-11.3,7.62-6.74,15.42-13.27,23.79-19.08,5.12-3.56,10.31-7.01,16.11-9.39,.36-.15,.75-.31,1.12-.31,2.03,.04,4.07-.18,6.03,.62,2.13,.89,4.29,1.72,6.44,2.58,.47,.19,.92,.49,1.4,.57,.37,.07,.89-.01,1.15-.24,.15-.14,.04-.78-.15-1.05-.38-.53-.83-1.08-1.38-1.41-2.19-1.31-4.42-2.55-6.63-3.81-.54-.32-1.08-.65-1.73-1.03,.33-.29,.46-.45,.62-.54,1.86-.92,3.75-1.8,5.59-2.76,2.1-1.1,4.07-.89,5.97,.46,1.98,1.4,4.04,2.72,5.94,4.23,1.15,.91,2.09,2.1,3.11,3.17,.41,.42,.71,1.06,1.2,1.25,.64,.25,1.41,.16,2.12,.21-.05-.65,.11-1.43-.2-1.93-1.09-1.77-2.29-3.48-3.54-5.13-1.81-2.39-4.06-4.25-6.87-5.39-.31-.12-.57-.34-1.03-.61,.22-.16,.39-.3,.55-.42,.15-.12,.29-.21,.44-.27,6.4-2.51,8.35-2.72,12.97,2.25,3.31,3.57,6.56,7.2,9.97,10.68,1.33,1.35,2.97,2.42,4.57,3.46,.47,.31,1.3,.09,1.96,.11-.24-.58-.36-1.26-.75-1.73-1.92-2.37-3.9-4.7-5.87-7.03-1.07-1.26-2.15-2.5-3.23-3.75-.67-.77-.37-1.32,.51-1.31,1.02,0,2.19,.04,3.04,.52,2.58,1.47,5.13,3.03,7.52,4.79,2.62,1.93,4.99,4.19,7.59,6.17,4.37,3.32,8.83,6.54,13.26,9.78,1.68,1.23,3.33,2.53,5.13,3.55,3.85,2.17,6.09,5.4,7.06,9.66,.34,1.49,.22,2.77-.63,4.02-.92,1.37-1.84,2.74-2.66,4.16-.33,.58-.64,.56-1.21,.51-1.16-.08-2.36-.11-3.49,.08-1.07,.18-1.56-.08-1.71-1.13-.72-5.02-3.02-9.32-6.3-13.07-1.3-1.48-2.81-2.91-4.49-3.91-3.37-2-6.51-4.23-9.15-7.14-.25-.27-.71-.34-1.07-.51-.01,.43-.11,.88,0,1.27,.12,.44,.36,.89,.67,1.24,1.46,1.63,2.82,3.4,4.47,4.82,4.75,4.09,8.31,9.06,11.25,14.53,.55,1.03,.86,2.18,1.29,3.28,.81,2.08,.49,3.97-.82,5.76-2.6,3.55-5.2,7.1-7.71,10.71-2.41,3.45-4.76,6.94-8.46,9.21-.42,.26-.69,.78-1.12,1.02-.9,.51-1.82,1.16-2.8,1.3-1.62,.22-3.29,.1-4.94,.09-.38-.01-.76-.17-1.29-.3,.25-.32,.33-.52,.48-.61,3.99-2.57,6.9-6.28,10.06-9.7,.79-.86,1.65-2.01,1.77-3.1,.72-6.21,.51-12.21-4.8-16.74-1.91-1.63-3.01-3.76-3.51-6.25-.29-1.44-.59-3.02-1.39-4.2-2.12-3.11-4.49-6.05-6.81-9.02-.37-.47-.97-.76-1.46-1.13-.12,.08-.23,.16-.34,.24,.09,.72,.04,1.5,.31,2.15,.55,1.38,1.22,2.71,1.92,4.03,3.25,6.13,6.59,12.22,9.77,18.4,1,1.93,1.68,4.05,2.35,6.13,.92,2.83,.41,5.37-1.75,7.58-1.57,1.59-2.89,3.42-4.43,5.05-.99,1.05-2.06,2.08-3.27,2.84-3.51,2.22-7.34,3.73-11.35,4.75-.44,.11-.93,.01-1.4,.01,.84-1.25,1.85-2.18,2.73-3.2,2.74-3.17,4.65-6.68,3.71-11.06-.54-2.52-1.09-5.08-2.01-7.49-2.06-5.38-4.31-10.68-6.55-15.99-.86-2.06-1.85-4.07-2.86-6.06-.4-.77-.93-1.55-2.16-1.6,.05,.51,.02,.98,.14,1.4,1.79,6.09,3.55,12.2,5.42,18.26,1.03,3.34,2.28,6.6,3.38,9.91,.63,1.87,.51,1.93-1.41,2.04-1.56,.08-3.13,.3-4.66,.6-.41,.08-.72,.68-1.08,1.03,.43,.21,.84,.56,1.27,.59,1.76,.13,3.53,.11,5.29,.25,.45,.03,.88,.41,1.32,.63-.42,.26-.81,.67-1.26,.76-1.85,.38-3.71,.64-5.56,1-.34,.07-.64,.41-.95,.63,.3,.26,.58,.71,.92,.75,1.24,.15,2.5,.14,3.74,.25,.39,.03,.77,.25,1.15,.39-.16,.34-.22,.79-.48,1.02-4.14,3.67-8.29,7.32-12.47,10.94-.93,.8-2.11,.91-3.25,.59-4.78-1.37-9.54-2.79-14.32-4.19-.84-.25-1.34-.81-1.42-1.68-.08-.9,.02-1.83-.15-2.7-.52-2.74,.84-4.83,2.41-6.72,2.05-2.47,2.39-2.37,5.06-.59,1.2,.8,2.51,1.44,3.83,2.02,.36,.16,1.07-.04,1.34-.33,.21-.22,.11-.95-.11-1.28-.46-.71-1.03-1.38-1.67-1.93-.97-.84-2.02-1.6-3.08-2.31-.75-.49-.78-1.08-.56-1.82,.93-3.07,1.8-6.16,3.49-8.96,.52-.85,.52-2.07,.6-3.13,.06-.68-.23-1.32-1.1-1.38-.87-.07-.96,.6-1.17,1.2-.49,1.4-1.03,2.78-1.51,4.19-.93,2.74-1.82,5.49-2.78,8.22-.13,.39-.49,.93-.79,.96-.32,.03-.84-.39-1.01-.74-.76-1.55-1.49-3.12-2.1-4.73-.74-1.95-1.75-3.62-3.67-4.59-.25-.13-.6-.22-.84-.15-.14,.04-.28,.48-.23,.7,.14,.61,.31,1.22,.57,1.78,1.19,2.56,2.41,5.11,3.64,7.65,.38,.79,.59,1.55-.1,2.29-2.61,2.8-3.29,6.34-3.7,9.95-.1,.88-.17,1.95,.23,2.65,1.29,2.25,.43,3.78-1.29,5.19-.15,.12-.27,.29-.39,.44-4.24,5.31-8.98,10.07-14.69,13.84-1.38,.92-2.51,2.24-3.7,3.43-.25,.25-.23,.77-.33,1.17,.4,.01,.87,.18,1.17,.02,1-.54,1.99-1.12,2.88-1.82,3.61-2.84,7.23-5.67,10.76-8.62,2.16-1.81,4.15-3.83,6.22-5.74,.2-.19,.45-.33,.8-.57-.2,1.72-.4,3.22-.54,4.73-.17,1.78-.86,3.33-1.89,4.76-.55,.76-1.04,1.57-1.6,2.33-.86,1.18-1.21,2.36-.49,3.79,.35,.7,.75,.84,1.24,.4,.48-.43,.93-1,1.15-1.6,1.9-5.02,3.77-10.05,5.58-15.1,.33-.94,.65-1.12,1.59-.79,3.08,1.04,6.21,1.94,9.3,2.96,3.91,1.3,7.41,.75,10.51-2.07,1.65-1.51,3.42-2.87,5.86-2.8,.22,.01,.44-.13,.67-.19,1.32-.33,2.64-.72,3.97-1,.08-.02,.16-.03,.24-.05,2.31-.45,4.62-.82,6.94-1.17,.43-.06,.9,.13,1.34,.24,1.55,.42,3.07,.94,4.63,1.25,1.38,.28,1.53,.32,1.07,1.62-1.59,4.51-3.22,9.01-4.83,13.51-.15,.44-.36,.89-.39,1.35-.03,.29,.14,.78,.35,.87,.13,.05,.32,0,.51-.09l.9,2.2c-1.7,.68-3.39,1.39-5.06,2.15-3.2,1.46-6.5,2.75-9.82,3.93-6.76,2.41-13.82,3.52-20.9,4.48-5.65,.76-11.33,.99-17.03,.56-2-.15-4-.27-5.99-.33-.35,0-.71,.34-1.07,.53,.23,.36,.37,.83,.69,1.08,.49,.37,1.12,.56,1.66,.87,.31,.18,.55,.47,.82,.71-.25,.22-.47,.51-.76,.66-2.3,1.19-4.62,2.35-6.93,3.52-4.54,2.31-9.18,4.46-13.61,6.97-8.77,4.96-15.5,12.19-21.72,19.98-5.67,7.11-10.37,14.87-15.2,22.54-7.53,11.97-14.56,24.22-20.36,37.14-1.56,3.49-2.74,7.16-4.01,10.78-.25,.71-.13,1.56-.18,2.34,.24,.16,.48,.31,.72,.47,.23-.45,.44-.92,.69-1.36,.76-1.32,1.59-2.61,2.28-3.97,2.4-4.73,4.65-9.52,7.12-14.2,5.21-9.83,10.73-19.46,18.07-27.92,4.39-5.06,8.06-10.63,11.15-16.58,2.32-4.47,5.02-8.7,8.45-12.43,2.72-2.95,5.27-6.05,8.06-8.91,4.22-4.34,9.59-6.89,15.04-9.27,5.32-2.33,10.59-4.76,15.28-8.29,.66-.5,1.75-.58,2.65-.58,1.4,.01,2.81,.32,4.21,.36,6,.19,11.96-.32,17.79-1.59,4.27-.92,8.43-2.42,12.57-3.85,6.63-2.29,13.24-4.64,19.8-7.14,6.26-2.38,12.43-5.01,18.67-7.46,3.61-1.42,7.24-2.79,10.92-4.02,2.98-.99,5.71-2.36,8.08-4.45Zm3.11,26.83c.35-.63,.68-1.33-.02-1.92-.74-.63-1.45-.22-1.99,.32-1.24,1.24-2.54,2.47-3.6,3.87-6.79,8.9-13.14,18.12-18.96,27.69-4.98,8.18-9.64,16.55-15.44,24.21-3.98,5.26-6.96,11.1-9.12,17.33-2.12,6.11-4.01,12.3-6.21,18.38-3.12,8.62-6.52,17.14-9.63,25.77-3.35,9.31-6.42,18.71-7.31,28.65-.12,1.38-.15,2.77-.22,4.16,.17,.06,.34,.11,.51,.17,.25-.41,.55-.79,.72-1.23,.88-2.22,1.82-4.43,2.57-6.7,3.72-11.16,7.4-22.32,12.02-33.16,5.72-13.42,11.52-26.81,18.19-39.79,8.99-17.5,18.85-34.5,29.11-51.29,3.29-5.38,6.27-10.96,9.38-16.46ZM205.4,109.03c.46-.21,.99-.97,.93-1.41-.05-.38-.85-.69-1.35-.98-.26-.15-.71-.09-.86-.29-1.08-1.43-2.46-1.03-3.86-.75-4.06,.82-8.11,1.77-12.21,2.37-8.35,1.23-16.68,2.47-24.77,4.96-7.54,2.32-15.18,4.2-23.05,5.09-7.28,.83-14.53,1.9-21.62,3.89-4.88,1.37-9.73,2.78-14.06,5.53-.47,.3-.87,.69-1.31,1.04,.07,.13,.13,.27,.19,.41,.49,.03,.99,.13,1.48,.09,1.83-.19,3.68-.29,5.48-.65,8.42-1.69,16.81-3.52,25.23-5.16,12.62-2.46,25.27-4.78,37.9-7.2,9.2-1.76,18.39-3.57,27.57-5.43,1.48-.3,2.93-.89,4.31-1.51Zm-6.68,55.65c.07-.64-.22-.91-.86-.97-.41-.05-.81-.27-1.22-.38-1.24-.34-2.48-.66-3.14-.83-2.7,.02-4.96,.85-6.3,2.19-.3,.3-.35,.84-.52,1.27,.46,0,1.02,.18,1.37-.02,1.77-1.01,3.64-1.07,5.58-.77,1.32,.2,2.64,.37,3.96,.54,.75,.09,1.06-.35,1.13-1.03Zm-9.94-42.91c.6-.58,.28-1.21-.55-1.24-.39-.02-.79,.04-1.16,.13-1.64,.41-3.26,.87-4.9,1.27-23.8,5.84-47.33,12.61-70.36,21.05-4.79,1.75-9.54,3.63-13.73,6.63-.45,.32-.84,.72-1.26,1.09l.21,.42c.52-.06,1.06-.06,1.56-.19,5.39-1.41,10.81-2.61,16.29-3.59,4.21-.76,8.31-2.28,12.36-3.71,15.42-5.43,30.71-11.19,46.47-15.61,4.32-1.22,8.5-2.97,12.7-4.57,.88-.34,1.68-1.02,2.37-1.68Zm-19.97,132.43c.28-.21,.34-.71,.49-1.07-.38-.11-.78-.34-1.15-.3-2.92,.35-5.83,.74-8.74,1.14-.96,.13-1.95,.52-2.88,.41-6-.7-11.62-2.64-16.71-5.88-1.5-.95-2.8-2.39-3.82-3.87-.64-.92-1.26-1.37-2.25-1.5-.8-.1-1.22,.32-1.14,1.09,.06,.57,.25,1.15,.47,1.69,1.29,3.06,3.31,5.48,6.26,7.08,1.11,.6,1.05,.91,.07,1.63-1.64,1.2-3.25,2.45-4.79,3.77-1.96,1.68-3.89,3.4-5.71,5.23-.57,.58-.77,1.54-1.05,2.35-.04,.14,.45,.66,.59,.62,.96-.27,2.04-.45,2.8-1.03,1.9-1.44,3.61-3.14,5.48-4.64,2.07-1.67,4.19-3.29,6.35-4.85,.9-.65,2.01-1.18,3.07-.47,2.23,1.49,4.75,1.45,6.94,1.6,4.94-.15,9.53-.66,13.97-2.1,.62-.2,1.24-.51,1.75-.9Z"/><path class="cls-2" d="M444.88,128.55c.48,1.54,.49,1.65-1.16,1.81-6.73,.65-12.96,3.33-19.54,4.59-2.45,.48-4.9,1.03-7.11,1.49-1.1-.17-1.98-.14-2.7-.47-.64-.3-1.4-.92-1.54-1.52-.12-.54,.37-1.57,.88-1.84,1.57-.85,3.22-1.75,4.94-2.09,7.33-1.45,14.71-2.72,22.08-4.02,.76-.14,1.58-.18,2.34-.05,.93,.15,2.08,.26,1.73,1.76-.03,.1,.05,.22,.08,.34Z"/><path class="cls-2" d="M438.72,166.14c.78,.7,.6,1.18-.45,1.41-.56,.13-1.16,.12-1.75,.17-.02,.09-.04,.17-.07,.26-4.07-.94-8.15-1.86-12.21-2.82-1.03-.24-2.04-.56-3.02-.94-.61-.23-1.23-.56-1.7-1-1.06-1.02-.64-2.68,.8-2.86,1.21-.16,2.54-.13,3.69,.22,4.19,1.26,8.34,2.67,12.48,4.1,.82,.29,1.58,.87,2.23,1.46Z"/><path class="cls-2" d="M430.44,91.26c-.08,.32-.07,.74-.27,.95-1.27,1.33-2.4,2.9-3.91,3.86-7.95,5.06-15.96,10-24.02,14.88-1.48,.9-3.24,1.31-5.1,2.03-.71-.52-1.53-.88-1.97-1.5-.58-.84-.09-1.76,.64-2.27,1.11-.77,2.28-1.63,3.56-1.96,4.15-1.09,7.57-3.38,10.79-6.04,4.44-3.66,9.5-6.26,14.61-8.75,1.46-.71,3.12-.99,4.71-1.41,.28-.08,.64,.13,.96,.21Z"/><path class="cls-2" d="M410.84,175.92c.76,5.94,.82,11.9,.39,17.87-.98,13.95-4.2,27.5-7.63,41-.94,3.68-2.49,7.13-5.37,9.78-2.15,1.97-4.66,3.15-7.62,3.28-3.34,.14-5.96-1.24-7.57-4.08-1.2-2.13-1.97-4.51-2.92-6.78-.7-1.7-1.31-3.45-2.09-5.11-.81-1.69-2.01-3.1-3.67-4.03-1.54-.87-2.85-.69-3.6,.87-1.37,2.85-2.52,5.81-3.68,8.75-1.05,2.7-1.87,5.49-3.02,8.15-.97,2.25-2.56,4.13-4.52,5.65-4.25,3.29-9.22,2.85-12.87-1.11-2.48-2.68-3.86-5.96-5.26-9.26-1.23-2.88-2.53-5.74-3.97-8.52-.49-.97-1.38-1.81-2.27-2.48-1.1-.83-1.54-.63-2.48,.42-3.83,4.3-5.84,9.4-6.89,14.99-.4,2.11-.93,4.22-1.72,6.22-2.21,5.61-7.36,7.38-12.69,4.52-3.5-1.87-5.64-4.95-6.86-8.53-2.92-8.56-5.97-17.11-7.54-26.06-.78-4.43-.58-8.77,1.93-12.74,.35-.56,.59-1.19,.89-1.79,1.43-2.88,1.54-5.8,.2-8.74-.53-1.14-1-2.31-1.65-3.38-2.69-4.38-2.96-8.94-1.56-13.69l2.51,.53c-.57,2.32,.25,4.62,1.12,6.79,1.04,2.63,2.25,5.18,3.31,7.8,1.44,3.52,1.56,7.08,.17,10.67-.69,1.79-1.37,3.58-2.04,5.38-1.09,2.92-1.3,5.88-.38,8.89,1.62,5.36,3.21,10.74,4.86,16.09,1.1,3.6,2.21,7.2,3.46,10.74,.69,1.98,1.98,3.57,3.98,4.44,2.33,1.01,4.5,.43,5.84-1.73,.65-1.06,1.09-2.26,1.52-3.43,1.67-4.61,3.2-9.27,4.99-13.83,.88-2.24,2-4.45,3.38-6.41,1.95-2.77,4.88-3.31,7.95-1.86,2.09,.99,3.66,2.56,4.9,4.48,1.81,2.81,2.73,5.96,3.5,9.18,.44,1.83,.79,3.7,1.49,5.43,1.13,2.8,3.71,3.93,6.66,3.18,2.65-.68,4.76-2.18,5.96-4.62,.94-1.91,1.55-4,2.22-6.04,.89-2.72,1.67-5.46,2.56-8.18,.2-.62,.62-1.18,.99-1.73,3.48-5.16,9.14-5.5,13.28-.84,2.25,2.54,3.22,5.7,4.53,8.73,1.04,2.39,2.07,4.88,3.62,6.94,2.91,3.84,7.27,3.49,9.74-.65,1.01-1.69,1.84-3.6,2.25-5.52,1.93-9.17,3.86-18.34,5.47-27.57,1.77-10.17,2.25-20.43,1.2-30.74-.9-8.83-3.29-17.23-7.19-25.2-4.19-8.57-9.69-16.32-15.07-24.15-3.71-5.39-8.16-9.79-14.29-12.41-5.09-2.18-8.66-6.03-10.93-11.05-1.55-3.44-3.02-6.9-4.44-10.39-2.25-5.51-5.58-10.19-10.44-13.68-2.42-1.73-4.89-3.43-7.47-4.91-6.33-3.66-12.43-7.64-18.14-12.23-2.83-2.28-5.9-4.31-9.05-6.13-4.34-2.5-9.14-3.48-14.08-2.41-4,.88-7.95,2.1-11.84,3.4-4.51,1.51-8.96,3.14-13.79,3.27-4.17,.11-8.15-.46-11.57-3.12-.7-.55-1.32-1.2-2.07-1.88-4.48,6.49-9.23,12.63-16.13,17.01,.14-.31,.17-.42,.23-.51,4.28-5.72,8.57-11.44,12.84-17.16,.19-.26,.23-.62,.34-.93-.35-.11-.81-.42-1.02-.3-.86,.49-1.81,.98-2.42,1.72-4.74,5.66-9.4,11.39-14.08,17.1-1.29,1.57-1.26,2.25-.23,4.02,.25,.44,.51,.89,.75,1.34l-2.68,.3c-.37-.76-.87-1.48-1.43-2.09-1.18-1.26-1.87-1.25-3.43-.5-2.75,1.32-5.57,1.18-8.38,.28-4.65-1.49-7.98-4.39-9.53-9.15-.55-1.67-.49-3.23,.31-4.79,3.44-6.72,7.68-12.89,13.08-18.19,1.14-1.12,2.32-2.23,3.55-3.28l2.12,.83c-.08,.07-.15,.15-.23,.23-1.19,1.3-2.56,2.44-3.71,3.77-4.43,5.12-8.48,10.51-11.72,16.47-.37,.69-.58,1.47-.87,2.21,.11,.09,.21,.19,.32,.29,.57-.35,1.18-.65,1.7-1.06,1.64-1.27,3.22-2.63,4.89-3.87,1.15-.85,2.23-1.76,3.22-2.77l2.31,.9c-.86,1.2-.42,2.53,1.32,3.57,.31,.18,.64,.32,.93,.52,.95,.67,2.01,1.24,2.81,2.06,1.56,1.61,1.53,1.67,2.97-.06l.15-.18c.63-.61,.51-1.06-.14-1.64l1.16-1.24c.39,.2,1.04,.26,1.27,.07,.89-.73,2.13-1.58,2.26-2.52,.05-.38-.29-.82-.72-1.27l1.52-1.51,.32,.32c.21,.2,.67,.51,.71,.47,.56-.54,1.15-1.08,1.53-1.73,.14-.24-.18-.85-.43-1.19-1.09-1.48-2.25-2.9-3.35-4.37-.68-.91-1.28-1.87-1.91-2.79l.59-1.41c2.03,1.73,4.05,3.46,6.01,5.25,1.33,1.22,1.67,1.17,2.33-.4l1.32-2.15c.72-.79,.88-1.49,.62-2.19l2.81-.11c.08,.32,.15,.63,.2,.95,.03,.19,.13,.4,.09,.58-.44,2.04,.76,2.9,2.42,3.59,2.79,1.16,5.48,2.54,8.3,3.63,6.39,2.47,12.82,2.2,19.23-.04,3.37-1.18,6.74-2.33,10.12-3.47,7.34-2.46,14.42-1.64,21.2,1.88,9.5,4.94,18.38,10.88,26.86,17.38,4.13,3.16,7.96,6.76,11.65,10.44,4.51,4.5,7.72,9.98,10.62,15.63,1.07,2.09,2.24,4.14,3.46,6.15,2.08,3.42,4.81,6.24,8.3,8.19,6.2,3.46,10.91,8.41,14.82,14.22,5.37,7.98,10.78,15.94,15.29,24.45,4.45,8.38,7.72,17.15,8.93,26.62ZM247.88,52.81c.27-.33,.44-1.12,.24-1.36-.47-.56-1.12-.42-1.6,.17-.32,.4-.66,.79-.92,1.22-2.92,5.04-6.91,9.22-10.82,13.46-1.33,1.43-2.07,2.95-2.2,5.21,.52-.45,.87-.68,1.11-1,2.18-2.77,4.3-5.59,6.5-8.33,2.54-3.15,5.16-6.22,7.69-9.37Zm-18.05,15.3c-.36-.39-.6-.69-.89-.94-1.93-1.72-3.87-3.44-5.84-5.1-.22-.19-.82-.18-1.07-.01-1,.69-1.02,1.13-.13,1.94,1.94,1.77,3.9,3.52,5.89,5.24,.19,.17,.71,.24,.9,.1,.42-.3,.72-.76,1.14-1.23Zm-2.79,2.98c.42-.7,.29-1.11-.44-1.48-2.1-1.05-3.9-2.46-5.15-4.5-.28-.45-.7-.82-1.08-1.25-.35,.27-.63,.48-.9,.7-.27,.23-.53,.47-.81,.68-1.05,.81-1.08,1.11-.07,1.96,2.2,1.88,4.43,3.73,6.66,5.59,.2,.16,.45,.26,.75,.43,.37-.76,.66-1.47,1.04-2.13Zm-4.55,3.76c.04-.13,.09-.25,.13-.38-.17-.18-.33-.39-.53-.55-.43-.33-.92-.6-1.32-.97-1.65-1.49-3.25-3.02-4.91-4.5-.27-.25-.69-.36-1.06-.45-.07-.02-.39,.44-.34,.59,.71,1.95,1.35,3.94,3.65,4.7,1.03,.35,1.98,.91,2.99,1.31,.43,.17,.92,.17,1.39,.25Z"/><path class="cls-1" d="M405.84,177.24c1.05,10.31,.57,20.57-1.2,30.74-1.61,9.23-3.54,18.4-5.47,27.57-.41,1.92-1.24,3.83-2.25,5.52-2.47,4.14-6.83,4.49-9.74,.65-1.55-2.06-2.58-4.55-3.62-6.94-1.31-3.03-2.28-6.19-4.53-8.73-4.14-4.66-9.8-4.32-13.28,.84-.37,.55-.79,1.11-.99,1.73-.89,2.72-1.67,5.46-2.56,8.18-.67,2.04-1.28,4.13-2.22,6.04-1.2,2.44-3.31,3.94-5.96,4.62-2.95,.75-5.53-.38-6.66-3.18-.7-1.73-1.05-3.6-1.49-5.43-.77-3.22-1.69-6.37-3.5-9.18-1.24-1.92-2.81-3.49-4.9-4.48-3.07-1.45-6-.91-7.95,1.86-1.38,1.96-2.5,4.17-3.38,6.41-1.79,4.56-3.32,9.22-4.99,13.83-.43,1.17-.87,2.37-1.52,3.43-1.34,2.16-3.51,2.74-5.84,1.73-2-.87-3.29-2.46-3.98-4.44-1.25-3.54-2.36-7.14-3.46-10.74-1.65-5.35-3.24-10.73-4.86-16.09-.92-3.01-.71-5.97,.38-8.89,.67-1.8,1.35-3.59,2.04-5.38,1.39-3.59,1.27-7.15-.17-10.67-1.06-2.62-2.27-5.17-3.31-7.8-.87-2.17-1.69-4.47-1.12-6.79,.04-.18,.09-.35,.15-.53,.6-1.78,1.64-3.45,2.72-5.01,1.69-2.45,2.51-5.04,1.93-7.99-.43-2.14-1.46-3.96-3.21-5.57,1.58-.45,2.99-.89,4.41-1.23,.25-.06,.72,.15,.86,.37,4.29,6.91,8.66,13.82,10.15,21.98,.48,2.63,.44,5.39,.32,8.07-.05,1.06-.79,2.22-1.51,3.09-1.14,1.37-2.85,1.01-3.4-.7-.47-1.48-.7-3.05-1-4.59-.56-2.96-1.07-5.94-1.67-8.9-.15-.75-.45-1.51-.84-2.17-.58-.98-1.84-1.42-2.76-1.07-1.05,.4-1.14,1.32-1.09,2.26,.27,5.12,1.6,9.97,3.74,14.61,.48,1.03,1.01,2.05,1.68,2.96,1.71,2.3,4.36,2.48,6.41,.46,1.8-1.78,2.73-3.99,3.02-6.49,.68-5.7-.25-11.24-2.25-16.53-1.86-4.94-4.2-9.71-6.33-14.56-.17-.39-.36-.76-.6-1.27,2.17-1.04,4.28-2.05,6.39-3.06,7.05-3.37,14.11-6.7,21.12-10.15,1.53-.75,2.93-1.82,4.24-2.92,.69-.59,1.06-1.56,1.68-2.52-3.98-.61-7.49-.01-10.94,1.21-5.31,1.87-9.95,4.98-14.67,7.95-4.45,2.81-8.86,5.74-13.94,7.29-2.38,.74-4.9,.99-7.36,1.47-.33,.07-.54,.04-.68-.06-.2-.16-.21-.49-.15-.89,.28-2.11,1.26-3.85,2.81-5.29,2.71-2.52,6.03-3.95,9.43-5.19,9.66-3.53,18.86-7.99,27.57-13.47,.43-.27,.85-.55,1.32-.86-.47-1.1-1.4-1.23-2.27-1.1-1.07,.17-2.15,.49-3.14,.93-9.58,4.24-19.11,8.6-28.74,12.74-3.37,1.44-6.92,2.55-10.47,3.47-1.46,.38-2.91,.27-4.28-.24-.82-.31-1.61-.76-2.34-1.34,11.15-4.02,22.05-8.17,32.37-14.32-1.74-.74-3.3-.74-4.88-.55-3.08,.39-5.88,1.64-8.65,2.96-8.4,4.02-17.18,6.91-26.27,8.84-.92,.19-1.86,.34-2.8,.36-.49,.01-.96-.02-1.4-.1-3.23-.53-4.96-3.21-4.2-6.79,.53-2.49,2.02-4.32,4.02-5.75,1.5-1.07,3.13-1.95,4.64-3.01,1.65-1.18,3.32-2.37,4.82-3.73,1.32-1.19,2.18-2.74,2.34-4.83-1.1,.36-2.07,.61-3,.98-5.67,2.21-10.3,5.78-13.8,10.79-.54,.77-1.07,1.55-1.7,2.25-1.65,1.83-3.67,2.28-5.85,1.14-1.3-.69-2.58-1.55-3.63-2.57-3.23-3.14-6.97-5.45-10.94-7.49-2.8-1.45-5.44-3.16-7.49-5.62-1.62-1.95-2.74-4.12-2.75-6.72-.01-2.4,1.17-3.66,3.56-3.48,2.93,.22,5.84,.66,8.76,1.03,6.51,.82,13.01,1.64,19.5,2.48,1.09,.13,2.19,.27,3.26,.47,.85,.16,1.76,.59,1.66,1.52-.07,.64-.7,1.55-1.28,1.73-1.66,.52-3.41,.83-5.15,1.03-4.75,.55-9.52,1-14.28,1.5-.06,0-.12,.08-.51,.38,2.21,.78,4.16,1.65,6.21,2.15,5.14,1.26,10.22,.93,15.08-1.25,2.32-1.05,4.32-2.52,4.73-5.28,.44-2.95-.96-4.79-3.9-5.21-4.03-.57-8.08-1.12-12.12-1.66-6.22-.84-12.44-1.69-18.67-2.49-2.1-.27-4.22-.5-6.33-.56-1.23-.03-1.99-.54-2.62-1.46-1.59-2.31-1.66-4.9-1.06-7.47,.54-2.31,1.42-4.55,2.17-6.82,.89-2.69,1.92-5.38,1.22-8.26-.2-.81-.54-1.6-.93-2.36-.24-.45-.5-.9-.75-1.34-1.03-1.77-1.06-2.45,.23-4.02,4.68-5.71,9.34-11.44,14.08-17.1,.61-.74,1.56-1.23,2.42-1.72,.21-.12,.67,.19,1.02,.3-.11,.31-.15,.67-.34,.93-4.27,5.72-8.56,11.44-12.84,17.16-.06,.09-.09,.2-.23,.51,6.9-4.38,11.65-10.52,16.13-17.01,.75,.68,1.37,1.33,2.07,1.88,3.42,2.66,7.4,3.23,11.57,3.12,4.83-.13,9.28-1.76,13.79-3.27,3.89-1.3,7.84-2.52,11.84-3.4,4.94-1.07,9.74-.09,14.08,2.41,3.15,1.82,6.22,3.85,9.05,6.13,5.71,4.59,11.81,8.57,18.14,12.23,2.58,1.48,5.05,3.18,7.47,4.91,4.86,3.49,8.19,8.17,10.44,13.68,1.42,3.49,2.89,6.95,4.44,10.39,2.27,5.02,5.84,8.87,10.93,11.05,6.13,2.62,10.58,7.02,14.29,12.41,5.38,7.83,10.88,15.58,15.07,24.15,3.9,7.97,6.29,16.37,7.19,25.2Zm-9.75,35.02c0-1.57,.07-3.14-.02-4.7-.07-1.4-.21-2.81-.53-4.17-.12-.5-.78-1.11-1.29-1.22-.81-.17-1.09,.6-1.18,1.3-.32,2.48-.57,4.98-.94,7.45-.47,3.16,.01,6.56-2.34,9.27-.25,.28-.19,1.26,.07,1.46,.82,.6,.87,1.35,.95,2.22,.04,.45,.49,1.13,.87,1.2,.51,.11,1.3-.09,1.63-.46,.58-.65,.99-1.5,1.32-2.32,1.28-3.22,1.56-6.61,1.46-10.03Zm-11.7-45.47c.18-.54,.14-1.15,.19-1.63-.35-3.87-.78-7.6-2.07-11.19-2.14-5.89-4.16-11.83-6.27-17.73-.68-1.89-1.89-3.45-3.48-4.67-2.21-1.68-4.64-2.96-7.34-3.63-1.02-.25-2.11-.41-3.13-.31-.57,.05-1.39,.65-1.51,1.15-.12,.47,.44,1.21,.87,1.67,.32,.35,.9,.45,1.36,.67,1.87,.9,3.76,1.77,5.6,2.74,1.53,.8,2.74,2.01,3.44,3.61,3.67,8.42,6.7,17.07,9.48,25.82,.38,1.2,.7,2.41,1.14,3.59,.12,.32,.59,.73,.87,.71,.31-.03,.73-.46,.85-.8Zm-24.27,58.87c.09-.03,.18-.06,.28-.09-.29-.42-.49-1.03-.88-1.19-.25-.1-.78,.43-1.16,.72-.15,.11-.23,.32-.31,.49-1.04,2.46-2.09,4.9-3.08,7.37-.26,.65-.42,1.36-.49,2.06-.1,1.01,.72,1.55,1.61,1.06,.4-.22,.82-.57,1-.96,1.39-3.03,3.52-5.82,3.03-9.46Zm-19.23-124.99c-.06-.05-.12-.1-.19-.14-.03-.28-.05-.55-.1-.82-.58-3.44-1.25-6.86-1.74-10.31-.4-2.82-1.75-4.95-4.22-6.28-3.76-2-7.37-4.34-11.6-5.31-.64-.15-1.27-.42-1.92-.47-.36-.02-.95,.23-1.05,.5-.14,.36-.05,.97,.19,1.28,.4,.51,.96,.93,1.53,1.26,3.27,1.94,6.56,3.84,10.25,4.89,1.85,.52,2.82,1.72,3.08,3.58,.29,2.17,.42,4.39,.96,6.51,.51,2.06,1.38,4.04,2.25,5.99,.18,.4,1.1,.77,1.56,.66,.41-.1,.67-.87,1-1.34Zm-19.09,114c-.12-2.46-1.34-4.67-2.97-6.68-1.66-2.04-3.79-3.52-6.15-4.63-.52-.24-1.55-.17-1.89,.18-.33,.35-.14,1.26-.05,1.91,.04,.32,.33,.62,.56,.89,1.17,1.36,2.38,2.7,3.53,4.08,.72,.87,1.46,1.75,2.02,2.73,.84,1.45,.69,2.24-.42,3.51-.31,.35-.68,.66-.97,1.02-1.3,1.61-2.69,3.16-3.83,4.87-.45,.68-.53,1.73-.47,2.59,.06,1.03,1.02,1.34,1.79,.65,2.22-1.99,4.43-3.99,6.6-6.02,1.41-1.31,2.18-2.94,2.25-5.1Zm-49.87-114.61c.13-.35-.24-1.05-.59-1.37-.96-.86-2-1.64-3.05-2.39-1.4-1.01-1.81-2.29-1.58-4,.29-2.12,.48-4.28,.46-6.42-.05-2.98,.2-5.84,1.44-8.61,.45-.99,.54-2.19,.55-3.3,.01-.41-.76-1.23-.99-1.16-.65,.18-1.42,.58-1.75,1.13-1.77,2.95-2.92,6.11-3.3,9.58-.34,3.13,.19,6.39-1.36,9.34-.13,.26-.06,.62-.07,.71,.16,4.23,5.05,8.23,8.99,7.51,.48-.09,1.1-.58,1.25-1.02Z"/><path class="cls-2" d="M404.58,62.83c0,.37,.14,.81-.02,1.09-.77,1.4-1.42,2.94-2.47,4.1-5.74,6.34-11.58,12.58-17.41,18.84-.66,.71-1.49,1.24-1.41,2.42,.02,.29-.49,.61-.64,.8-.93-.14-1.57-.16-2.17-.33-.88-.24-1.06-1.02-.74-1.69,.51-1.08,1.02-2.31,1.89-3.05,5.68-4.83,10.2-10.76,15.38-16.05,1.78-1.82,3.65-3.55,5.5-5.31,.28-.26,.63-.48,.99-.62,.34-.13,.73-.13,1.1-.2Z"/><path class="cls-2" d="M396.07,207.56c.09,1.56,.02,3.13,.02,4.7,.1,3.42-.18,6.81-1.46,10.03-.33,.82-.74,1.67-1.32,2.32-.33,.37-1.12,.57-1.63,.46-.38-.07-.83-.75-.87-1.2-.08-.87-.13-1.62-.95-2.22-.26-.2-.32-1.18-.07-1.46,2.35-2.71,1.87-6.11,2.34-9.27,.37-2.47,.62-4.97,.94-7.45,.09-.7,.37-1.47,1.18-1.3,.51,.11,1.17,.72,1.29,1.22,.32,1.36,.46,2.77,.53,4.17Z"/><path class="cls-2" d="M384.58,165.16c-.05,.48-.01,1.09-.19,1.63-.12,.34-.54,.77-.85,.8-.28,.02-.75-.39-.87-.71-.44-1.18-.76-2.39-1.14-3.59-2.78-8.75-5.81-17.4-9.48-25.82-.7-1.6-1.91-2.81-3.44-3.61-1.84-.97-3.73-1.84-5.6-2.74-.46-.22-1.04-.32-1.36-.67-.43-.46-.99-1.2-.87-1.67,.12-.5,.94-1.1,1.51-1.15,1.02-.1,2.11,.06,3.13,.31,2.7,.67,5.13,1.95,7.34,3.63,1.59,1.22,2.8,2.78,3.48,4.67,2.11,5.9,4.13,11.84,6.27,17.73,1.29,3.59,1.72,7.32,2.07,11.19Z"/><path class="cls-2" d="M372.54,44.76c.62-.59,1.25-.3,1.24,.57-.02,1.08-.04,2.23-.39,3.23-2.75,7.87-6.3,15.38-10.55,22.55-.3,.51-.91,.83-1.38,1.23-.31-.66-.63-1.32-.93-1.99-.04-.1,0-.23,0-.61,.02-.17,.02-.61,.13-1.03,.55-2.05,.98-4.09,.64-6.25-.09-.63,.19-1.43,.55-1.99,1.44-2.29,3-4.5,4.49-6.76,1.4-2.13,2.74-4.3,4.16-6.41,.6-.9,1.27-1.79,2.04-2.54Z"/><path class="cls-2" d="M360.4,225.57c-.1,.03-.19,.06-.28,.09,.49,3.64-1.64,6.43-3.03,9.46-.18,.39-.6,.74-1,.96-.89,.49-1.71-.05-1.61-1.06,.07-.7,.23-1.41,.49-2.06,.99-2.47,2.04-4.91,3.08-7.37,.08-.17,.16-.38,.31-.49,.38-.29,.91-.82,1.16-.72,.39,.16,.59,.77,.88,1.19Z"/><path class="cls-2" d="M343.47,140.19c-.62,.96-.99,1.93-1.68,2.52-1.31,1.1-2.71,2.17-4.24,2.92-7.01,3.45-14.07,6.78-21.12,10.15-2.11,1.01-4.22,2.02-6.39,3.06,.24,.51,.43,.88,.6,1.27,2.13,4.85,4.47,9.62,6.33,14.56,2,5.29,2.93,10.83,2.25,16.53-.29,2.5-1.22,4.71-3.02,6.49-2.05,2.02-4.7,1.84-6.41-.46-.67-.91-1.2-1.93-1.68-2.96-2.14-4.64-3.47-9.49-3.74-14.61-.05-.94,.04-1.86,1.09-2.26,.92-.35,2.18,.09,2.76,1.07,.39,.66,.69,1.42,.84,2.17,.6,2.96,1.11,5.94,1.67,8.9,.3,1.54,.53,3.11,1,4.59,.55,1.71,2.26,2.07,3.4,.7,.72-.87,1.46-2.03,1.51-3.09,.12-2.68,.16-5.44-.32-8.07-1.49-8.16-5.86-15.07-10.15-21.98-.14-.22-.61-.43-.86-.37-1.42,.34-2.83,.78-4.41,1.23,1.75,1.61,2.78,3.43,3.21,5.57,.58,2.95-.24,5.54-1.93,7.99-1.08,1.56-2.12,3.23-2.72,5.01-.06,.18-.11,.35-.15,.53l-2.51-.53c.08-.26,.16-.53,.25-.79,.96-2.9,1.81-5.85,2.48-8.82,.79-3.58-.03-6.77-2.83-9.33-.87-.79-1.73-1.61-2.49-2.51-.34-.4-.62-.81-.84-1.24l2.51-.38c.14,.1,.35,.13,.68,.06,2.46-.48,4.98-.73,7.36-1.47,5.08-1.55,9.49-4.48,13.94-7.29,4.72-2.97,9.36-6.08,14.67-7.95,3.45-1.22,6.96-1.82,10.94-1.21Z"/><path class="cls-2" d="M340.7,100.53c.07,.04,.13,.09,.19,.14-.33,.47-.59,1.24-1,1.34-.46,.11-1.38-.26-1.56-.66-.87-1.95-1.74-3.93-2.25-5.99-.54-2.12-.67-4.34-.96-6.51-.26-1.86-1.23-3.06-3.08-3.58-3.69-1.05-6.98-2.95-10.25-4.89-.57-.33-1.13-.75-1.53-1.26-.24-.31-.33-.92-.19-1.28,.1-.27,.69-.52,1.05-.5,.65,.05,1.28,.32,1.92,.47,4.23,.97,7.84,3.31,11.6,5.31,2.47,1.33,3.82,3.46,4.22,6.28,.49,3.45,1.16,6.87,1.74,10.31,.05,.27,.07,.54,.1,.82Z"/><path class="cls-2" d="M336.86,132.35c-.47,.31-.89,.59-1.32,.86-8.71,5.48-17.91,9.94-27.57,13.47-3.4,1.24-6.72,2.67-9.43,5.19-1.55,1.44-2.53,3.18-2.81,5.29-.06,.4-.05,.73,.15,.89l-2.51,.38c-.68-1.33-.78-2.81-.1-4.49-2.15-1.1-4.3-2.13-6.49-3.07l1.18-2.72c1.37,.51,2.82,.62,4.28,.24,3.55-.92,7.1-2.03,10.47-3.47,9.63-4.14,19.16-8.5,28.74-12.74,.99-.44,2.07-.76,3.14-.93,.87-.13,1.8,0,2.27,1.1Z"/><path class="cls-2" d="M318.83,207.99c1.63,2.01,2.85,4.22,2.97,6.68-.07,2.16-.84,3.79-2.25,5.1-2.17,2.03-4.38,4.03-6.6,6.02-.77,.69-1.73,.38-1.79-.65-.06-.86,.02-1.91,.47-2.59,1.14-1.71,2.53-3.26,3.83-4.87,.29-.36,.66-.67,.97-1.02,1.11-1.27,1.26-2.06,.42-3.51-.56-.98-1.3-1.86-2.02-2.73-1.15-1.38-2.36-2.72-3.53-4.08-.23-.27-.52-.57-.56-.89-.09-.65-.28-1.56,.05-1.91,.34-.35,1.37-.42,1.89-.18,2.36,1.11,4.49,2.59,6.15,4.63Z"/><path class="cls-2" d="M313.11,131.94c1.58-.19,3.14-.19,4.88,.55-10.32,6.15-21.22,10.3-32.37,14.32,.73,.58,1.52,1.03,2.34,1.34l-1.18,2.72c-2.55-1.09-5.14-2.05-7.8-2.84-1.95-.56-3.89-1.13-5.78-1.82l.79-2.21c.44,.08,.91,.11,1.4,.1,.94-.02,1.88-.17,2.8-.36,9.09-1.93,17.87-4.82,26.27-8.84,2.77-1.32,5.57-2.57,8.65-2.96Z"/><path class="cls-2" d="M291.43,253.18c.75,.1,1.26,1.44,1.05,2.76-.62,3.83-1.21,7.67-1.95,11.48-2.48,12.72-6.32,25.08-9.83,37.53-4.18,14.83-7.93,29.77-10.91,44.9-.89,4.46-1.6,8.95-2.46,13.42-.22,1.18-.68,2.33-1.08,3.47-.1,.29-.4,.51-.6,.76-.2-.3-.53-.59-.56-.91-.21-1.87-.35-3.75-.47-5.09,.33-9.92,1.96-19.08,4.55-28.1,2.15-7.45,4.43-14.88,6.29-22.41,1.11-4.51,1.61-9.19,2.22-13.81,.79-5.98,2.43-11.75,4.14-17.49,2.46-8.22,5.08-16.39,7.67-24.57,.29-.92,.54-2.12,1.94-1.94Z"/><path class="cls-2" d="M285.61,119.89c-.16,2.09-1.02,3.64-2.34,4.83-1.5,1.36-3.17,2.55-4.82,3.73-1.51,1.06-3.14,1.94-4.64,3.01-2,1.43-3.49,3.26-4.02,5.75-.76,3.58,.97,6.26,4.2,6.79l-.79,2.21c-2.13-.78-4.2-1.73-6.12-3.07-5.64-3.92-11.41-7.65-17.09-11.52-3.89-2.65-7.81-5.28-11.55-8.13-2.99-2.28-5.18-5.25-5.98-9.05-.43-2.03-.4-4.04,.28-6.04,.12-.37-.01-.99-.26-1.31-3.26-4.23-4.01-8.86-2.14-13.86,.76-2.01,1.71-3.96,2.53-5.95,1.02-2.46,1.48-5,.53-7.57-.09-.26-.21-.51-.33-.77l2.68-.3c.39,.76,.73,1.55,.93,2.36,.7,2.88-.33,5.57-1.22,8.26-.75,2.27-1.63,4.51-2.17,6.82-.6,2.57-.53,5.16,1.06,7.47,.63,.92,1.39,1.43,2.62,1.46,2.11,.06,4.23,.29,6.33,.56,6.23,.8,12.45,1.65,18.67,2.49,4.04,.54,8.09,1.09,12.12,1.66,2.94,.42,4.34,2.26,3.9,5.21-.41,2.76-2.41,4.23-4.73,5.28-4.86,2.18-9.94,2.51-15.08,1.25-2.05-.5-4-1.37-6.21-2.15,.39-.3,.45-.38,.51-.38,4.76-.5,9.53-.95,14.28-1.5,1.74-.2,3.49-.51,5.15-1.03,.58-.18,1.21-1.09,1.28-1.73,.1-.93-.81-1.36-1.66-1.52-1.07-.2-2.17-.34-3.26-.47-6.49-.84-12.99-1.66-19.5-2.48-2.92-.37-5.83-.81-8.76-1.03-2.39-.18-3.57,1.08-3.56,3.48,0,2.6,1.13,4.77,2.75,6.72,2.05,2.46,4.69,4.17,7.49,5.62,3.97,2.04,7.71,4.35,10.94,7.49,1.05,1.02,2.33,1.88,3.63,2.57,2.18,1.14,4.2,.69,5.85-1.14,.63-.7,1.16-1.48,1.7-2.25,3.5-5.01,8.13-8.58,13.8-10.79,.93-.37,1.9-.62,3-.98Z"/><path class="cls-2" d="M279.85,215.22c2.62,6.5,1.51,11.2-3.74,15.83-2.37,2.09-5.1,3.46-8.08,4.45-3.68,1.23-7.31,2.6-10.92,4.02-6.24,2.45-12.41,5.08-18.67,7.46-6.56,2.5-13.17,4.85-19.8,7.14-4.14,1.43-8.3,2.93-12.57,3.85-5.83,1.27-11.79,1.78-17.79,1.59-1.4-.04-2.81-.35-4.21-.36-.9,0-1.99,.08-2.65,.58-4.69,3.53-9.96,5.96-15.28,8.29-5.45,2.38-10.82,4.93-15.04,9.27-2.79,2.86-5.34,5.96-8.06,8.91-3.43,3.73-6.13,7.96-8.45,12.43-3.09,5.95-6.76,11.52-11.15,16.58-7.34,8.46-12.86,18.09-18.07,27.92-2.47,4.68-4.72,9.47-7.12,14.2-.69,1.36-1.52,2.65-2.28,3.97-.25,.44-.46,.91-.69,1.36-.24-.16-.48-.31-.72-.47,.05-.78-.07-1.63,.18-2.34,1.27-3.62,2.45-7.29,4.01-10.78,5.8-12.92,12.83-25.17,20.36-37.14,4.83-7.67,9.53-15.43,15.2-22.54,6.22-7.79,12.95-15.02,21.72-19.98,4.43-2.51,9.07-4.66,13.61-6.97,2.31-1.17,4.63-2.33,6.93-3.52,.29-.15,.51-.44,.76-.66-.27-.24-.51-.53-.82-.71-.54-.31-1.17-.5-1.66-.87-.32-.25-.46-.72-.69-1.08,.36-.19,.72-.54,1.07-.53,1.99,.06,3.99,.18,5.99,.33,5.7,.43,11.38,.2,17.03-.56,7.08-.96,14.14-2.07,20.9-4.48,3.32-1.18,6.62-2.47,9.82-3.93,1.67-.76,3.36-1.47,5.06-2.15,5.15-2.03,10.43-3.71,15.77-5.21,.57-.16,1.15-.33,1.64-.64,4.84-2.96,10.25-4.49,15.58-6.23,3.57-1.18,6.8-2.87,9.08-6,1.29-1.78,1.33-3.74,.91-5.76-.12-.07-.23-.14-.35-.2-.39,.43-.79,.85-1.16,1.3-1.74,2.06-3.71,2.4-5.92,.99-.23-.15-.5-.29-.64-.51-1.61-2.6-3.31-5.14-2.66-8.5,.34-1.79,.76-3.5,1.64-5.12,.54-.98,.72-2.16,1.25-3.15,.56-1.04,1.23-2.08,2.07-2.89,.76-.74,1.04-1.35,.62-2.35-.85-2.02-3.05-3.13-5.14-2.42-.38,.13-.82,.58-.91,.95-.86,3.63-3.21,6.34-5.42,9.14-1.47,1.84-2.97,3.66-4.36,5.56-.41,.56-.67,1.35-.68,2.04-.1,4.8,1.95,8.8,4.81,12.48,.3,.38,.34,.95,.5,1.43-.53,.15-1.11,.51-1.59,.4-2-.46-3.38-1.71-4.1-3.67-.64-1.72-1.33-3.42-1.95-5.15-.22-.62-.29-1.29-.47-1.93-.08-.28-.19-.69-.39-.76-.21-.07-.59,.13-.79,.33-1.34,1.27-2.56,2.68-3.98,3.85-1.19,.97-2.56,1.78-3.95,2.45-.76,.36-1.12,.67-1.08,1.52,.15,2.98,.25,5.96,.37,8.94,.02,.59,.05,1.18,.03,1.76-.05,1.24-.81,1.8-1.97,1.34-.27-.1-.48-.71-.48-1.09,.02-1.88-.76-3.52-1.3-5.23-.11,0-.22,0-.34,0-.18,.36-.36,.73-.54,1.09-1.36,2.73-2.73,5.46-4.1,8.18-.12,.24-.29,.5-.51,.64-.11,.07-.25,.16-.39,.23-.19,.09-.38,.14-.51,.09-.21-.09-.38-.58-.35-.87,.03-.46,.24-.91,.39-1.35,1.61-4.5,3.24-9,4.83-13.51,.46-1.3,.31-1.34-1.07-1.62-1.56-.31-3.08-.83-4.63-1.25-.44-.11-.91-.3-1.34-.24-2.32,.35-4.63,.72-6.94,1.17-.08,.02-.16,.03-.24,.05l-.61-2.79c4.01-1.02,7.84-2.53,11.35-4.75,1.21-.76,2.28-1.79,3.27-2.84,1.54-1.63,2.86-3.46,4.43-5.05,2.16-2.21,2.67-4.75,1.75-7.58-.67-2.08-1.35-4.2-2.35-6.13-3.18-6.18-6.52-12.27-9.77-18.4-.7-1.32-1.37-2.65-1.92-4.03-.27-.65-.22-1.43-.31-2.15,.11-.08,.22-.16,.34-.24,.49,.37,1.09,.66,1.46,1.13,2.32,2.97,4.69,5.91,6.81,9.02,.8,1.18,1.1,2.76,1.39,4.2,.5,2.49,1.6,4.62,3.51,6.25,5.31,4.53,5.52,10.53,4.8,16.74-.12,1.09-.98,2.24-1.77,3.1-3.16,3.42-6.07,7.13-10.06,9.7-.15,.09-.23,.29-.48,.61,.53,.13,.91,.29,1.29,.3,1.65,0,3.32,.13,4.94-.09,.98-.14,1.9-.79,2.8-1.3,.43-.24,.7-.76,1.12-1.02,3.7-2.27,6.05-5.76,8.46-9.21,2.51-3.61,5.11-7.16,7.71-10.71,1.31-1.79,1.63-3.68,.82-5.76-.43-1.1-.74-2.25-1.29-3.28-2.94-5.47-6.5-10.44-11.25-14.53-1.65-1.42-3.01-3.19-4.47-4.82-.31-.35-.55-.8-.67-1.24-.11-.39-.01-.84,0-1.27,.36,.17,.82,.24,1.07,.51,2.64,2.91,5.78,5.14,9.15,7.14,1.68,1,3.19,2.43,4.49,3.91,3.28,3.75,5.58,8.05,6.3,13.07,.15,1.05,.64,1.31,1.71,1.13,1.13-.19,2.33-.16,3.49-.08,.57,.05,.88,.07,1.21-.51,.82-1.42,1.74-2.79,2.66-4.16,.85-1.25,.97-2.53,.63-4.02-.97-4.26-3.21-7.49-7.06-9.66-1.8-1.02-3.45-2.32-5.13-3.55-4.43-3.24-8.89-6.46-13.26-9.78-2.6-1.98-4.97-4.24-7.59-6.17-2.39-1.76-4.94-3.32-7.52-4.79-.85-.48-2.02-.52-3.04-.52-.88-.01-1.18,.54-.51,1.31,1.08,1.25,2.16,2.49,3.23,3.75,1.97,2.33,3.95,4.66,5.87,7.03,.39,.47,.51,1.15,.75,1.73-.66-.02-1.49,.2-1.96-.11-1.6-1.04-3.24-2.11-4.57-3.46-3.41-3.48-6.66-7.11-9.97-10.68-4.62-4.97-6.57-4.76-12.97-2.25-.15,.06-.29,.15-.44,.27l-2.56-1.4c2.62-2.37,5.83-3.46,9.27-3.53,2.97-.06,5.72,1.14,7.98,3.22,.08,.07,.16,.16,.25,.24,2.01,1.9,2.06,1.88,4.6,.76,2.13-.93,4.12-.1,5.98,.79,2.15,1.02,4.24,2.21,6.24,3.51,1.66,1.08,3.16,2.42,4.73,3.65,2.5,1.96,4.94,4,7.51,5.86,6.29,4.57,12.74,8.9,18.56,14.1,2.99,2.67,4.79,5.89,5.44,9.76,.42,2.48-.51,4.6-2.25,6.41-.89,.92-1.74,1.91-2.48,2.95-.22,.31-.17,.97,0,1.38,.74,1.83,1.82,3.57,2.32,5.46,.98,3.71,1.65,7.49,2.48,11.24,.17,.76,.38,1.53,.67,2.25Zm-6.3,3.78c2.1-4.63,2.35-9.26-.45-14.23-.68,1.14-1.44,2-1.73,2.99-.72,2.42-1.32,4.9-1.79,7.38-.3,1.56,.15,3.03,1.3,4.22,1.17,1.22,1.97,1.19,2.67-.36Z"/><path class="cls-2" d="M279.2,255.96c.7,.59,.37,1.29,.02,1.92-3.11,5.5-6.09,11.08-9.38,16.46-10.26,16.79-20.12,33.79-29.11,51.29-6.67,12.98-12.47,26.37-18.19,39.79-4.62,10.84-8.3,22-12.02,33.16-.75,2.27-1.69,4.48-2.57,6.7-.17,.44-.47,.82-.72,1.23-.17-.06-.34-.11-.51-.17,.07-1.39,.1-2.78,.22-4.16,.89-9.94,3.96-19.34,7.31-28.65,3.11-8.63,6.51-17.15,9.63-25.77,2.2-6.08,4.09-12.27,6.21-18.38,2.16-6.23,5.14-12.07,9.12-17.33,5.8-7.66,10.46-16.03,15.44-24.21,5.82-9.57,12.17-18.79,18.96-27.69,1.06-1.4,2.36-2.63,3.6-3.87,.54-.54,1.25-.95,1.99-.32Z"/><path class="cls-1" d="M277.01,220.49c.42,2.02,.38,3.98-.91,5.76-2.28,3.13-5.51,4.82-9.08,6-5.33,1.74-10.74,3.27-15.58,6.23-.49,.31-1.07,.48-1.64,.64-5.34,1.5-10.62,3.18-15.77,5.21l-.9-2.2c.14-.07,.28-.16,.39-.23,.22-.14,.39-.4,.51-.64,1.37-2.72,2.74-5.45,4.1-8.18,.18-.36,.36-.73,.54-1.09,.12,0,.23,0,.34,0,.54,1.71,1.32,3.35,1.3,5.23,0,.38,.21,.99,.48,1.09,1.16,.46,1.92-.1,1.97-1.34,.02-.58-.01-1.17-.03-1.76-.12-2.98-.22-5.96-.37-8.94-.04-.85,.32-1.16,1.08-1.52,1.39-.67,2.76-1.48,3.95-2.45,1.42-1.17,2.64-2.58,3.98-3.85,.2-.2,.58-.4,.79-.33,.2,.07,.31,.48,.39,.76,.18,.64,.25,1.31,.47,1.93,.62,1.73,1.31,3.43,1.95,5.15,.72,1.96,2.1,3.21,4.1,3.67,.48,.11,1.06-.25,1.59-.4-.16-.48-.2-1.05-.5-1.43-2.86-3.68-4.91-7.68-4.81-12.48,.01-.69,.27-1.48,.68-2.04,1.39-1.9,2.89-3.72,4.36-5.56,2.21-2.8,4.56-5.51,5.42-9.14,.09-.37,.53-.82,.91-.95,2.09-.71,4.29,.4,5.14,2.42,.42,1,.14,1.61-.62,2.35-.84,.81-1.51,1.85-2.07,2.89-.53,.99-.71,2.17-1.25,3.15-.88,1.62-1.3,3.33-1.64,5.12-.65,3.36,1.05,5.9,2.66,8.5,.14,.22,.41,.36,.64,.51,2.21,1.41,4.18,1.07,5.92-.99,.37-.45,.77-.87,1.16-1.3,.12,.06,.23,.13,.35,.2Z"/><path class="cls-1" d="M273.1,204.77c2.8,4.97,2.55,9.6,.45,14.23-.7,1.55-1.5,1.58-2.67,.36-1.15-1.19-1.6-2.66-1.3-4.22,.47-2.48,1.07-4.96,1.79-7.38,.29-.99,1.05-1.85,1.73-2.99Z"/><path class="cls-2" d="M271.34,98.69c.35,.32,.72,1.02,.59,1.37-.15,.44-.77,.93-1.25,1.02-3.94,.72-8.83-3.28-8.99-7.51,.01-.09-.06-.45,.07-.71,1.55-2.95,1.02-6.21,1.36-9.34,.38-3.47,1.53-6.63,3.3-9.58,.33-.55,1.1-.95,1.75-1.13,.23-.07,1,.75,.99,1.16-.01,1.11-.1,2.31-.55,3.3-1.24,2.77-1.49,5.63-1.44,8.61,.02,2.14-.17,4.3-.46,6.42-.23,1.71,.18,2.99,1.58,4,1.05,.75,2.09,1.53,3.05,2.39Z"/><path class="cls-2" d="M249.35,45.72l-2.81,.11c-.07-.21-.19-.42-.33-.63-.38-.55-.83-1.06-1.13-1.64-.61-1.17-1.56-1.79-2.81-2.13-1.2-.32-2.37-.78-3.56-1.15-.35-.11-.73-.09-1.09-.13,.18,.35,.29,.79,.57,1.02,1.8,1.52,3.66,2.96,5.44,4.49,.8,.68,1.47,1.5,2.29,2.36l-1.32,2.15c-2.63-2.22-5.14-4.32-7.63-6.45-.48-.42-.79-.37-1.13,.14-.44,.68-.07,1.03,.42,1.46l-.59,1.41c-.71,.2-1.35,.21-1.71,.52-.59,.51-1.11,1.18-1.44,1.88-.12,.25,.35,.87,.67,1.2,1.86,1.91,3.73,3.81,5.61,5.69l-1.52,1.51c-.41-.41-.9-.84-1.24-1.24-.05-.06-.13-.08-.2-.13-1.48-1.13-2.97-2.27-4.46-3.4-.27-.21-.54-.42-.94-.73-.52,.69-1.07,1.26-1.4,1.95-.12,.26,.19,.83,.43,1.15,.93,1.25,1.91,2.46,2.87,3.67,.63,.8,1.2,1.65,1.94,2.33,.05,.04,.12,.09,.19,.12l-1.16,1.24c-1.88-1.66-3.69-3.39-5.54-5.09-.23-.21-.49-.37-.73-.56-.2,.1-.34,.16-.47,.24-.58,.35-1.01,.74-1.3,1.14l-2.31-.9c.99-1,1.87-2.09,2.63-3.3,2.67-4.26,5.2-8.6,7.78-12.9,.12-.2,.18-.43,.33-.81-1.72,.26-3.18,.61-4.34,1.74l-2.12-.83c1.23-1.04,2.51-2.01,3.87-2.84,8.55-5.27,16.56,.92,18.24,7.34Z"/><path class="cls-1" d="M248.12,51.45c.2,.24,.03,1.03-.24,1.36-2.53,3.15-5.15,6.22-7.69,9.37-2.2,2.74-4.32,5.56-6.5,8.33-.24,.32-.59,.55-1.11,1,.13-2.26,.87-3.78,2.2-5.21,3.91-4.24,7.9-8.42,10.82-13.46,.26-.43,.6-.82,.92-1.22,.48-.59,1.13-.73,1.6-.17Z"/><path class="cls-3" d="M246.54,45.83c.26,.7,.1,1.4-.62,2.19-.82-.86-1.49-1.68-2.29-2.36-1.78-1.53-3.64-2.97-5.44-4.49-.28-.23-.39-.67-.57-1.02,.36,.04,.74,.02,1.09,.13,1.19,.37,2.36,.83,3.56,1.15,1.25,.34,2.2,.96,2.81,2.13,.3,.58,.75,1.09,1.13,1.64,.14,.21,.26,.42,.33,.63Z"/><path class="cls-3" d="M244.6,50.17c-.66,1.57-1,1.62-2.33,.4-1.96-1.79-3.98-3.52-6.01-5.25-.49-.43-.86-.78-.42-1.46,.34-.51,.65-.56,1.13-.14,2.49,2.13,5,4.23,7.63,6.45Z"/><path class="cls-3" d="M240.93,53.89c.25,.34,.57,.95,.43,1.19-.38,.65-.97,1.19-1.53,1.73-.04,.04-.5-.27-.71-.47l-.32-.32c-1.88-1.88-3.75-3.78-5.61-5.69-.32-.33-.79-.95-.67-1.2,.33-.7,.85-1.37,1.44-1.88,.36-.31,1-.32,1.71-.52,.63,.92,1.23,1.88,1.91,2.79,1.1,1.47,2.26,2.89,3.35,4.37Z"/><path class="cls-3" d="M237.28,57.53c.43,.45,.77,.89,.72,1.27-.13,.94-1.37,1.79-2.26,2.52-.23,.19-.88,.13-1.27-.07-.07-.03-.14-.08-.19-.12-.74-.68-1.31-1.53-1.94-2.33-.96-1.21-1.94-2.42-2.87-3.67-.24-.32-.55-.89-.43-1.15,.33-.69,.88-1.26,1.4-1.95,.4,.31,.67,.52,.94,.73,1.49,1.13,2.98,2.27,4.46,3.4,.07,.05,.15,.07,.2,.13,.34,.4,.83,.83,1.24,1.24Z"/><path class="cls-3" d="M233.31,62.49c.65,.58,.77,1.03,.14,1.64l-.15,.18c-1.44,1.73-1.41,1.67-2.97,.06-.8-.82-1.86-1.39-2.81-2.06-.29-.2-.62-.34-.93-.52-1.74-1.04-2.18-2.37-1.32-3.57,.29-.4,.72-.79,1.3-1.14,.13-.08,.27-.14,.47-.24,.24,.19,.5,.35,.73,.56,1.85,1.7,3.66,3.43,5.54,5.09Z"/><path class="cls-3" d="M233.7,40.31c-.15,.38-.21,.61-.33,.81-2.58,4.3-5.11,8.64-7.78,12.9-.76,1.21-1.64,2.3-2.63,3.3-.99,1.01-2.07,1.92-3.22,2.77-1.67,1.24-3.25,2.6-4.89,3.87-.52,.41-1.13,.71-1.7,1.06-.11-.1-.21-.2-.32-.29,.29-.74,.5-1.52,.87-2.21,3.24-5.96,7.29-11.35,11.72-16.47,1.15-1.33,2.52-2.47,3.71-3.77,.08-.08,.15-.16,.23-.23,1.16-1.13,2.62-1.48,4.34-1.74Z"/><path class="cls-3" d="M228.94,67.17c.29,.25,.53,.55,.89,.94-.42,.47-.72,.93-1.14,1.23-.19,.14-.71,.07-.9-.1-1.99-1.72-3.95-3.47-5.89-5.24-.89-.81-.87-1.25,.13-1.94,.25-.17,.85-.18,1.07,.01,1.97,1.66,3.91,3.38,5.84,5.1Z"/><path class="cls-2" d="M227.7,207.56c.94,4.38-.97,7.89-3.71,11.06-.88,1.02-1.89,1.95-2.73,3.2,.47,0,.96,.1,1.4-.01l.61,2.79c-1.33,.28-2.65,.67-3.97,1-.23,.06-.45,.2-.67,.19-2.44-.07-4.21,1.29-5.86,2.8-3.1,2.82-6.6,3.37-10.51,2.07-3.09-1.02-6.22-1.92-9.3-2.96-.94-.33-1.26-.15-1.59,.79-1.81,5.05-3.68,10.08-5.58,15.1-.22,.6-.67,1.17-1.15,1.6-.49,.44-.89,.3-1.24-.4-.72-1.43-.37-2.61,.49-3.79,.56-.76,1.05-1.57,1.6-2.33,1.03-1.43,1.72-2.98,1.89-4.76,.14-1.51,.34-3.01,.54-4.73-.35,.24-.6,.38-.8,.57-2.07,1.91-4.06,3.93-6.22,5.74-3.53,2.95-7.15,5.78-10.76,8.62-.89,.7-1.88,1.28-2.88,1.82-.3,.16-.77-.01-1.17-.02,.1-.4,.08-.92,.33-1.17,1.19-1.19,2.32-2.51,3.7-3.43,5.71-3.77,10.45-8.53,14.69-13.84,.12-.15,.24-.32,.39-.44,1.72-1.41,2.58-2.94,1.29-5.19-.4-.7-.33-1.77-.23-2.65,.41-3.61,1.09-7.15,3.7-9.95,.69-.74,.48-1.5,.1-2.29-1.23-2.54-2.45-5.09-3.64-7.65-.26-.56-.43-1.17-.57-1.78-.05-.22,.09-.66,.23-.7,.24-.07,.59,.02,.84,.15,1.92,.97,2.93,2.64,3.67,4.59,.61,1.61,1.34,3.18,2.1,4.73,.17,.35,.69,.77,1.01,.74,.3-.03,.66-.57,.79-.96,.96-2.73,1.85-5.48,2.78-8.22,.48-1.41,1.02-2.79,1.51-4.19,.21-.6,.3-1.27,1.17-1.2,.87,.06,1.16,.7,1.1,1.38-.08,1.06-.08,2.28-.6,3.13-1.69,2.8-2.56,5.89-3.49,8.96-.22,.74-.19,1.33,.56,1.82,1.06,.71,2.11,1.47,3.08,2.31,.64,.55,1.21,1.22,1.67,1.93,.22,.33,.32,1.06,.11,1.28-.27,.29-.98,.49-1.34,.33-1.32-.58-2.63-1.22-3.83-2.02-2.67-1.78-3.01-1.88-5.06,.59-1.57,1.89-2.93,3.98-2.41,6.72,.17,.87,.07,1.8,.15,2.7,.08,.87,.58,1.43,1.42,1.68,4.78,1.4,9.54,2.82,14.32,4.19,1.14,.32,2.32,.21,3.25-.59,4.18-3.62,8.33-7.27,12.47-10.94,.26-.23,.32-.68,.48-1.02-.38-.14-.76-.36-1.15-.39-1.24-.11-2.5-.1-3.74-.25-.34-.04-.62-.49-.92-.75,.31-.22,.61-.56,.95-.63,1.85-.36,3.71-.62,5.56-1,.45-.09,.84-.5,1.26-.76-.44-.22-.87-.6-1.32-.63-1.76-.14-3.53-.12-5.29-.25-.43-.03-.84-.38-1.27-.59,.36-.35,.67-.95,1.08-1.03,1.53-.3,3.1-.52,4.66-.6,1.92-.11,2.04-.17,1.41-2.04-1.1-3.31-2.35-6.57-3.38-9.91-1.87-6.06-3.63-12.17-5.42-18.26-.12-.42-.09-.89-.14-1.4,1.23,.05,1.76,.83,2.16,1.6,1.01,1.99,2,4,2.86,6.06,2.24,5.31,4.49,10.61,6.55,15.99,.92,2.41,1.47,4.97,2.01,7.49Z"/><path class="cls-3" d="M226.6,69.61c.73,.37,.86,.78,.44,1.48-.38,.66-.67,1.37-1.04,2.13-.3-.17-.55-.27-.75-.43-2.23-1.86-4.46-3.71-6.66-5.59-1.01-.85-.98-1.15,.07-1.96,.28-.21,.54-.45,.81-.68,.27-.22,.55-.43,.9-.7,.38,.43,.8,.8,1.08,1.25,1.25,2.04,3.05,3.45,5.15,4.5Z"/><path class="cls-3" d="M222.62,74.47c-.04,.13-.09,.25-.13,.38-.47-.08-.96-.08-1.39-.25-1.01-.4-1.96-.96-2.99-1.31-2.3-.76-2.94-2.75-3.65-4.7-.05-.15,.27-.61,.34-.59,.37,.09,.79,.2,1.06,.45,1.66,1.48,3.26,3.01,4.91,4.5,.4,.37,.89,.64,1.32,.97,.2,.16,.36,.37,.53,.55Z"/><path class="cls-2" d="M222,160.12c.31,.5,.15,1.28,.2,1.93-.71-.05-1.48,.04-2.12-.21-.49-.19-.79-.83-1.2-1.25-1.02-1.07-1.96-2.26-3.11-3.17-1.9-1.51-3.96-2.83-5.94-4.23-1.9-1.35-3.87-1.56-5.97-.46-1.84,.96-3.73,1.84-5.59,2.76-.16,.09-.29,.25-.62,.54,.65,.38,1.19,.71,1.73,1.03,2.21,1.26,4.44,2.5,6.63,3.81,.55,.33,1,.88,1.38,1.41,.19,.27,.3,.91,.15,1.05-.26,.23-.78,.31-1.15,.24-.48-.08-.93-.38-1.4-.57-2.15-.86-4.31-1.69-6.44-2.58-1.96-.8-4-.58-6.03-.62-.37,0-.76,.16-1.12,.31-5.8,2.38-10.99,5.83-16.11,9.39-8.37,5.81-16.17,12.34-23.79,19.08-4.75,4.21-9.72,8.1-15.2,11.3-6.09,3.55-11.24,8.23-16.29,13.09-5.7,5.49-11.98,10.31-19.07,13.91-4.38,2.22-7.8,5.5-11.03,9.06-7.88,8.66-15.56,17.5-23.72,25.89-3.71,3.83-6.57,8.17-9.77,12.33-2.9,3.79-6.22,7.27-9.45,10.81-4,4.37-8.09,8.66-12.16,12.98-.4,.42-.87,.79-1.35,1.13-.15,.1-.55,.1-.64-.01-.13-.18-.16-.5-.12-.74,.04-.21,.21-.41,.35-.6,5.25-7.01,10.19-14.24,16.06-20.78,3.46-3.85,6.52-8.06,9.91-11.98,3.69-4.29,7.87-8.18,11.26-12.68,7.02-9.35,15.6-17.22,23.46-25.77,1.31-1.42,2.82-2.56,4.62-3.37,3.8-1.7,6.98-4.34,10.13-7.01,9.32-7.9,18.57-15.89,28.07-23.55,4.29-3.46,9.02-6.43,13.77-9.26,5.81-3.47,11.17-7.43,15.98-12.16,3.5-3.44,7.44-6.26,11.81-8.5,3.77-1.93,7.45-4.03,11.23-5.93,1.13-.57,2.48-.69,3.7-1.11,.56-.19,1.17-.5,1.53-.94,1.3-1.55,2.83-2.67,4.72-3.41,1.34-.52,2.56-1.35,3.89-1.91,1.06-.45,2.22-.66,3.32-1.02,.53-.18,1.15-.32,1.52-.69,.17-.17,.34-.33,.52-.49l2.56,1.4c-.16,.12-.33,.26-.55,.42,.46,.27,.72,.49,1.03,.61,2.81,1.14,5.06,3,6.87,5.39,1.25,1.65,2.45,3.36,3.54,5.13Z"/><path class="cls-2" d="M206.33,107.62c.06,.44-.47,1.2-.93,1.41-1.38,.62-2.83,1.21-4.31,1.51-9.18,1.86-18.37,3.67-27.57,5.43-12.63,2.42-25.28,4.74-37.9,7.2-8.42,1.64-16.81,3.47-25.23,5.16-1.8,.36-3.65,.46-5.48,.65-.49,.04-.99-.06-1.48-.09-.06-.14-.12-.28-.19-.41,.44-.35,.84-.74,1.31-1.04,4.33-2.75,9.18-4.16,14.06-5.53,7.09-1.99,14.34-3.06,21.62-3.89,7.87-.89,15.51-2.77,23.05-5.09,8.09-2.49,16.42-3.73,24.77-4.96,4.1-.6,8.15-1.55,12.21-2.37,1.4-.28,2.78-.68,3.86,.75,.15,.2,.6,.14,.86,.29,.5,.29,1.3,.6,1.35,.98Z"/><path d="M197.86,163.71c.64,.06,.93,.33,.86,.97-.07,.68-.38,1.12-1.13,1.03-1.32-.17-2.64-.34-3.96-.54-1.94-.3-3.81-.24-5.58,.77-.35,.2-.91,.02-1.37,.02,.17-.43,.22-.97,.52-1.27,1.34-1.34,3.6-2.17,6.3-2.19,.66,.17,1.9,.49,3.14,.83,.41,.11,.81,.33,1.22,.38Z"/><path class="cls-2" d="M188.23,120.53c.83,.03,1.15,.66,.55,1.24-.69,.66-1.49,1.34-2.37,1.68-4.2,1.6-8.38,3.35-12.7,4.57-15.76,4.42-31.05,10.18-46.47,15.61-4.05,1.43-8.15,2.95-12.36,3.71-5.48,.98-10.9,2.18-16.29,3.59-.5,.13-1.04,.13-1.56,.19l-.21-.42c.42-.37,.81-.77,1.26-1.09,4.19-3,8.94-4.88,13.73-6.63,23.03-8.44,46.56-15.21,70.36-21.05,1.64-.4,3.26-.86,4.9-1.27,.37-.09,.77-.15,1.16-.13Z"/><path class="cls-2" d="M169.3,253.13c-.15,.36-.21,.86-.49,1.07-.51,.39-1.13,.7-1.75,.9-4.44,1.44-9.03,1.95-13.97,2.1-2.19-.15-4.71-.11-6.94-1.6-1.06-.71-2.17-.18-3.07,.47-2.16,1.56-4.28,3.18-6.35,4.85-1.87,1.5-3.58,3.2-5.48,4.64-.76,.58-1.84,.76-2.8,1.03-.14,.04-.63-.48-.59-.62,.28-.81,.48-1.77,1.05-2.35,1.82-1.83,3.75-3.55,5.71-5.23,1.54-1.32,3.15-2.57,4.79-3.77,.98-.72,1.04-1.03-.07-1.63-2.95-1.6-4.97-4.02-6.26-7.08-.22-.54-.41-1.12-.47-1.69-.08-.77,.34-1.19,1.14-1.09,.99,.13,1.61,.58,2.25,1.5,1.02,1.48,2.32,2.92,3.82,3.87,5.09,3.24,10.71,5.18,16.71,5.88,.93,.11,1.92-.28,2.88-.41,2.91-.4,5.82-.79,8.74-1.14,.37-.04,.77,.19,1.15,.3Z"/></g><path class="cls-3" d="M391.72,140.5c-4.84-10.53-12.11-19.26-21.76-25.97-1.77-1.23-3.51-1.2-4.91-.46-.69-.97-1.66-1.74-2.86-2.12,1.13-4.35-2.21-9.86-7.78-8.17-27.18,8.21-53.92,17.74-80.17,28.57-3.27,1.35-5.51,4.3-4.54,8,.81,3.08,4.75,5.88,8,4.54,12.58-5.19,25.28-10.06,38.08-14.64-.04,1.07,.69,2.09,1.65,2.5-9.73,3.56-19.31,7.54-28.68,11.96-1.22,.58-1.54,2.33-.9,3.42,.73,1.25,2.19,1.48,3.42,.9,13.29-6.27,26.98-11.65,40.98-16.12,1.3-.42,1.8-1.53,1.71-2.6,1.01,.46,2.02,.91,3.04,1.37-.22,.1-.43,.23-.63,.4-11.06,8.94-23.66,15.57-37.25,19.72-3.68,1.12-2.11,6.92,1.6,5.79,12.82-3.91,24.66-9.9,35.4-17.79,.38,.08,.78,.09,1.19,0,1.75-.39,3.51-.78,5.26-1.18l1.81,2.87c-8.19,6.56-17.63,11.51-27.67,14.52-.9,.27-1.41,.88-1.63,1.57l-1.72,.56c-4.53,1.48-5.36,6.22-3.74,9.52-.03-.01-.06-.03-.09-.04-.04-.19-.11-.37-.22-.54-.78-1.23-1.69-2.38-2.69-3.45-.01-.06-.02-.12-.04-.17,0-.08-.02-.16-.02-.25-.02-.52-.21-1.04-.59-1.41-.35-.35-.92-.61-1.41-.59-.17,0-.34,.04-.5,.09-.32-.21-.66-.35-1.09-.35-.49,0-1.08,.22-1.41,.59-.35,.38-.61,.88-.59,1.41,.02,.5,.18,1.09,.59,1.41,.54,.43,1.04,.9,1.53,1.39,.37,.97,.93,1.84,1.63,2.6,0,.02-.02,.03-.03,.05-.13,.24-.18,.5-.17,.77,.02,.52,.19,1.05,.59,1.41,.13,.1,.27,.21,.4,.31,.31,.18,.65,.27,1.01,.27,.3-.03,.6-.03,.9,0,.29,.06,.58,.13,.86,.24,.27,.08,.53,.1,.8,.04,.27-.01,.51-.09,.74-.24,.23-.13,.42-.3,.56-.52,.18-.19,.3-.42,.36-.68,.05-.21,.06-.43,.06-.64,1.39,1.43,3.46,2.13,6,1.31,17.14-5.59,34.29-11.18,51.43-16.76,1.87-.61,3.09-1.77,3.79-3.16,2.17,.13,4.08-2.34,2.82-4.5-.29-.5-.6-.98-.94-1.45,.15-.63,.1-1.34-.28-2.06-1.38-2.66-3.26-5.06-5.51-7.03-.34-.29-.72-.51-1.12-.65-.29-.46-.68-.78-1.13-.96-.91-.74-1.91-1.33-2.99-1.71,.21-.68,.12-1.46-.41-2.25-.6-.89-.82-2.26,.11-3.07,.83-.71,2.39-.46,3.01,.43,.92,1.33,2.63,1.94,4.1,1.08,.08-.04,.14-.1,.21-.16,2.46,2.27,4.69,4.79,6.66,7.49-.32,.74-.34,1.62,.14,2.53,1.3,2.47,2.61,4.94,3.91,7.42,.12,.58,.39,1.11,.81,1.53,.02,.04,.04,.08,.07,.12,.59,1.13,1.56,1.54,2.51,1.48,3.62,3.56,11.06,.95,9.45-4.45,.58-1.51,0-3.48-1.69-4.03Zm-46.48,7.23c.58-.56,1.17-1.13,1.75-1.69,.12,.35,.27,.68,.44,.97l-2.19,.71Z"/></g></svg>