<?xml version="1.0" encoding="UTF-8"?><svg id="Layer_2" xmlns="http://www.w3.org/2000/svg" viewBox="0 0 227.27 227.04"><defs><style>.cls-1{fill:#fff;}.cls-2{fill:#203464;}.cls-3{fill:#ffec84;}</style></defs><g id="Layer_1-2"><g><path class="cls-2" d="M200.58,83.67c.32-.6,.83-.69,1.19-.13,.24,.38,.37,.92,.35,1.37-.06,1.25-.58,2.36-1.32,3.35-2.98,3.99-6.94,6.43-11.82,7.35-1.38,.26-2.79,.4-4.14,.59-.68-.09-1.28-.15-1.87-.27-.18-.04-.42-.28-.43-.45s.18-.47,.35-.52c.72-.23,1.46-.42,2.21-.56,2.84-.52,5.59-1.36,8.12-2.72,2.92-1.58,5.26-3.83,6.79-6.83,.2-.39,.37-.79,.57-1.16Z"/><path class="cls-2" d="M146.15,123.4c2.92-.49,5.86-.57,8.8-.23,.54,.06,1.11,.14,1.59,.38,.34,.16,.75,.6,.75,.92,0,.52-.58,.63-1.04,.66-.57,.04-1.14,.01-1.71,.01l-.02-.15c-2.98,.31-5.97,.62-8.96,.92-.82,.08-1.64,.16-2.47,.17-.27,0-.73-.2-.76-.37-.05-.28,.08-.72,.29-.91,1.01-.85,2.25-1.17,3.52-1.39Z"/><path class="cls-2" d="M152.17,41.65c-.41-.06-1-.14-.92-.77,.07-.57,.64-.54,1.04-.56,1.43-.09,2.86-.1,4.29-.16,6.94-.32,13.63-1.72,19.96-4.61,1.95-.89,3.77-2.1,5.65-3.15,.32-.18,.7-.57,1.04-.14,.34,.42-.11,.71-.36,.98-.28,.3-.57,.6-.91,.84-4.22,3-8.68,5.51-13.75,6.82-3.41,.88-6.86,1.3-11.27,1.4-1-.13-2.89-.36-4.77-.64Z"/><path class="cls-2" d="M196.21,41.11c-.52,.34-1.06,.68-1.64,.92-4.03,1.63-8.22,2.79-12.45,3.74-4.23,.96-8.47,1.92-12.75,2.55-3.65,.53-7.35,.61-11.03,.88,0-.06-.01-.12-.02-.18-4.37,.04-8.72-.26-12.98-1.33-.4-.1-1.01-.05-.96-.72,.05-.66,.63-.64,1.08-.64,1.94,.02,3.89,.09,5.83,.11,5.11,.06,10.23,.29,15.32-.29,3.56-.41,7.11-1,10.66-1.56,5.71-.89,11.29-2.34,16.84-3.94,.58-.16,1.19-.23,1.8-.3,.18-.02,.38,.12,.56,.18-.09,.19-.13,.47-.28,.56Z"/><path class="cls-2" d="M138.59,121.9c-.31,.09-.66,.04-.99,.05,.16-.31,.24-.7,.48-.93,1.63-1.51,3.57-2.48,5.67-3.16,3.75-1.22,7.61-1.9,11.55-2.15,1.68-.11,3.38-.25,5.06-.21,1.56,.04,3.13,.25,4.68,.48,.47,.07,.95,.37,1.34,.67,.44,.34,.34,.73-.19,.93-.26,.1-.57,.13-.86,.14-.81,.02-1.62,0-2.42,0-5.04,0-10.06,.35-14.98,1.54-3.14,.76-6.23,1.76-9.35,2.64Z"/><path class="cls-2" d="M118.2,67.81c-.11-.21,.04-.56,.08-.84,.25,.05,.53,.04,.73,.16,2.16,1.33,4.22,2.84,6.46,4,3.93,2.03,8.17,3.22,12.55,3.86,1.65,.24,3.3,.48,4.95,.73,.13,.02,.29,.03,.39,.1,.22,.17,.54,.38,.55,.59,.01,.2-.28,.56-.5,.61-.65,.13-1.32,.14-1.98,.18-.35,.02-.71,0-1.06,0-6.07-.02-11.73-1.57-16.91-4.72-1.53-.93-2.88-2.17-4.27-3.32-.42-.35-.74-.86-1-1.36Z"/><path class="cls-2" d="M87.64,149.37c1.09-.09,2.2-.06,3.3-.02,.92,.04,1.63,.51,2.1,1.32,.92,1.61,1.07,3.3,.51,5.06-.06,.18-.12,.37-.2,.61,.41,.13,.77,.26,1.15,.35,.49,.11,.73,.34,.69,.89-.05,.6-.02,1.21-.02,1.86-1.45,0-2.93,.09-4.39-.03-1.24-.1-2.5-.32-3.7-.66-1.87-.54-2.99-1.77-2.96-3.82,.02-.95,0-1.9,.13-2.83,.21-1.5,1.56-2.59,3.4-2.74Zm-.36,6.42c.46,.72,1.02,.89,1.83,.63,1.05-.36,1.73-1.53,1.54-2.68-.19-1.15-.68-1.57-1.88-1.56-.12,0-.23,0-.35,0-1.45,.05-2.2,1.06-1.76,2.44,.13,.42,.39,.81,.63,1.18Z"/><path class="cls-2" d="M88.33,180.85c1.38,0,2.12-.87,2.25-2.61,.03-1.01-.67-1.71-1.72-1.75-1.28-.04-2.3,.98-2.32,2.31-.02,1.19,.7,2.05,1.8,2.05Zm-1.98,2.96c-2.64-1-3.69-4.29-2.83-6.22,.11-.23,.19-.47,.29-.71,.92-2.19,3.19-3.65,5.57-3.58,.79,.02,1.46,.3,2,.87,1.21,1.3,1.89,2.83,1.9,4.62,0,3.84-3.44,6.33-6.93,5.01Z"/><path class="cls-2" d="M91.04,124.81c-.52,.05-1.06-.03-1.76-.06,.41-.68,.72-1.29,1.11-1.84,.42-.58,1.05-.71,1.74-.58,.46,.09,.89,.25,1.01,.77,.13,.55-.04,1.08-.53,1.32-.48,.23-1.04,.34-1.57,.4Z"/><path class="cls-2" d="M86.94,168.3c.74,1.02,2.08,.96,2.76-.11,.31-.5,.43-1.11,.63-1.68-.11-1.05-.41-1.71-1.05-1.81-.65-.09-1.34-.1-1.97,.04-.76,.15-1.42,1.09-1.23,1.72,.19,.65,.47,1.31,.86,1.85Zm-1.77,1.8c-.99-.76-1.37-1.88-1.41-3.06-.04-.92,.08-1.85,.24-2.75,.16-.93,.74-1.61,1.67-1.89,1.01-.3,2.03-.64,3.07-.8,2.66-.39,4.72,1.39,4.74,4.11,0,1.05-.23,2.1-.36,3.21,.38,.03,.84,.03,1.29,.13,.18,.04,.45,.28,.46,.44,.05,.76,.02,1.52,.02,2.21-2.26-.06-4.34-.06-6.41-.17-1.25-.07-2.33-.69-3.31-1.43Z"/><path class="cls-2" d="M87.08,142.3c.03,.98,.5,1.56,1.4,1.79,.92,.23,2.05-.2,2.52-1.1,.24-.47,.34-1.02,.49-1.61,.02-.08,.04-.17,.07-.25h2.33c-.34,1.52-.51,3.03-1.38,4.27-.96,1.35-4.42,2.03-5.89,1.27-.27-.15-.53-.34-.74-.56-1.33-1.42-1.93-3.07-1.51-5.02,.09-.42,.18-.84,.3-1.26,.25-.82,.73-1.44,1.56-1.73,1.07-.37,2.15-.72,3.23-1.05,.21-.06,.46-.01,.8-.01v3.82l-.08,.14c-.07-.13-.11-.28-.21-.4-.45-.52-1.04-.71-1.7-.55-.65,.15-.95,.66-1.08,1.27-.07,.32-.11,.66-.1,.99Z"/><path class="cls-3" d="M86.54,178.8c.03-1.33,1.05-2.35,2.32-2.31,1.06,.04,1.75,.74,1.72,1.75-.14,1.74-.87,2.61-2.25,2.61-1.09,0-1.82-.86-1.8-2.05Z"/><path class="cls-3" d="M87.18,141.31c.13-.61,.43-1.12,1.08-1.27,.66-.16,1.25,.03,1.7,.55,.1,.11,.14,.26,.21,.4l1.32,.4c-.15,.59-.24,1.13-.49,1.61-.47,.9-1.6,1.34-2.52,1.1-.9-.23-1.37-.81-1.4-1.79-.01-.33,.03-.67,.1-.99Z"/><path class="cls-3" d="M87.31,164.73c.63-.13,1.32-.13,1.97-.04,.65,.1,.94,.76,1.05,1.81-.2,.56-.32,1.18-.63,1.68-.67,1.07-2.01,1.13-2.76,.11-.4-.54-.67-1.2-.86-1.85-.19-.63,.47-1.57,1.23-1.72Z"/><path class="cls-3" d="M86.66,154.61c-.43-1.38,.32-2.38,1.76-2.44,.12,0,.23,0,.35,0,1.2,0,1.69,.41,1.88,1.56,.19,1.16-.49,2.33-1.54,2.68-.81,.27-1.37,.09-1.83-.63-.24-.38-.5-.76-.63-1.18Z"/><path class="cls-3" d="M87.3,189.13c1.37-.18,2.31,.75,2.32,2.28,.06,1.23-.75,1.78-2.32,1.91-.96,.08-1.59-.74-1.59-1.86,0-1.12,.75-2.22,1.59-2.32Z"/><path class="cls-2" d="M81.63,188.69c-.31,.02-.44-.08-.43-.39,.02-.67,0-1.34,.07-2,.02-.14,.29-.39,.43-.38,2.59,.16,5.19,.21,7.75,.56,2.93,.4,4.21,2.76,3.27,5.58-.8,2.41-2.48,3.84-4.92,4.32-.68,.13-1.49,.06-2.13-.2-.91-.37-1.77-.94-2.57-1.53-1.05-.79-1.03-1.99-.86-3.13,.12-.78,.43-1.54,.67-2.31,.04-.13,.09-.25,.19-.53-.58,0-1.03-.02-1.47,.01Zm5.67,4.63c1.57-.12,2.38-.68,2.32-1.91-.01-1.53-.96-2.46-2.32-2.28-.84,.11-1.59,1.2-1.59,2.32,0,1.12,.64,1.94,1.59,1.86Z"/><path class="cls-2" d="M87.83,125.12c.28,.56,.55,1.12,.85,1.71-.79,.58-1.1,1.42-1.34,2.31-.16,.61,.03,1.03,.49,1.39,.89,.7,1.94,.94,3.03,1,1.51,.08,1.51,.07,1.47,1.58-.03,1.41-.03,1.42-1.43,1.45-1.43,.03-2.84-.07-4.06-.94-1.63-1.14-2.62-3.63-2.03-5.53,.34-1.1,.92-2.17,1.55-3.14,.54-.83,1.04-.71,1.48,.17Z"/><path class="cls-1" d="M182.98,95.92c.59,.13,1.19,.18,1.87,.27,1.35-.19,2.76-.33,4.14-.59,4.88-.92,8.84-3.37,11.82-7.35,.74-.99,1.26-2.1,1.32-3.35,.02-.45-.11-.99-.35-1.37-.36-.56-.87-.47-1.19,.13-.2,.38-.37,.78-.57,1.16-1.53,3.01-3.86,5.26-6.79,6.83-2.53,1.36-5.28,2.2-8.12,2.72-.75,.14-1.49,.33-2.21,.56-.17,.05-.36,.36-.35,.52s.25,.41,.43,.45Zm-63.79-26.75c1.39,1.15,2.74,2.39,4.27,3.32,5.18,3.15,10.84,4.7,16.91,4.72,.36,0,.71,.02,1.06,0,.66-.04,1.33-.06,1.98-.18,.21-.04,.51-.4,.5-.61-.02-.21-.34-.42-.55-.59-.1-.08-.26-.08-.39-.1-1.65-.25-3.3-.49-4.95-.73-4.38-.64-8.62-1.83-12.55-3.86-2.24-1.16-4.3-2.67-6.46-4-.2-.12-.48-.11-.73-.16-.04,.28-.19,.64-.08,.84,.26,.5,.57,1.01,1,1.36Zm-43.14-19.67c-.32,.03-.67,.06-.95-.07-.44-.2-.82-.53-1.24-.79-.45-.29-.43-.6-.07-.96,1.66-1.66,3.45-3.15,5.62-4.13,3.2-1.44,6.49-2.62,10-3,4.08-.44,8.16-.56,12.14,.76,.46,.15,.94,.31,1.36,.54,4.14,2.29,8.62,3.64,13.14,4.94,5.43,1.56,10.82,3.3,16.26,4.82,6.54,1.84,13.18,3.27,19.9,4.33,3.67,.58,7.33,1.2,11,1.71,1.69,.23,3.41,.3,5.12,.37,4.01,.17,8.01,.32,12.02,.42,4.59,.12,9.14-.37,13.69-.94,5.35-.68,10.58-1.92,15.75-3.42,1.87-.54,3.74-1.07,5.6-1.6,.13-.04,.31-.03,.42,.04,.06,.04,.04,.26-.01,.37-1.88,4.04-1.02,7.72,1.42,11.2,.78,1.12,1.68,2.12,2.88,2.83,.93,.55,1.63,1.34,1.73,2.47,.16,1.66-1.03,3.07-2.76,3.08-1.12,.01-2.26-.22-3.38-.4-5.71-.89-11.42-1.19-17.12-.05-4.31,.86-8.07,2.89-11.51,5.57-.4,.32-.83,.61-1.18,.97-.16,.16-.17,.46-.24,.71,.23-.03,.49,.02,.68-.08,3.32-1.71,6.59-3.51,10.25-4.41,2.53-.63,5.1-.88,7.69-1.05,2.96-.2,5.89-.05,8.82,.38,.56,.09,.66,.31,.34,.79-.15,.23-.29,.48-.48,.67-1.94,1.91-2.75,4.4-3.61,6.87-.84,2.45-1.55,4.95-2.55,7.33-2.78,6.63-7.58,11.01-14.62,12.82-3.09,.8-6.21,.87-9.36,.43-1.92-.27-3.89-.34-5.78-.76-2.74-.61-5.42-1.44-8.12-2.2-3.59-1.01-7.15-2.12-10.76-3.03-3.54-.89-7.18-1.21-10.83-1.03-4.25,.21-8.36,1.13-12.24,2.92-.41,.19-.78,.46-1.12,.74-.14,.11-.26,.4-.21,.54,.05,.15,.32,.33,.49,.32,1-.03,2.01,0,2.98-.19,1.94-.39,3.85-.94,5.79-1.36,3.01-.66,6.05-.58,9.1-.39,3.84,.25,7.49,1.33,11.17,2.33,.25,.07,.48,.24,.83,.42-.23,.15-.32,.22-.42,.26-2.45,.88-4.93,1.71-7.35,2.66-3.09,1.22-6.33,1.85-9.51,2.7-4.19,1.12-8.38,2.24-12.54,3.45-1.75,.51-3.43,1.25-4.78,2.57-.82,.81-1.34,1.78-1.67,2.87-.23,.76-.32,.81-1.04,.48-2.59-1.18-5.21-2.29-7.73-3.6-1.83-.95-3.51-2.17-5.27-3.24-.22-.13-.53-.13-.79-.2,.08,.29,.08,.66,.26,.87,1.53,1.88,3.55,3.14,5.57,4.4,1.49,.94,3.04,1.81,4.56,2.72,.19,.11,.36,.27,.54,.4,0,.06-.01,.12-.01,.18-.31,.06-.61,.16-.91,.18-1.39,.1-2.75-.09-4.06-.56-2.42-.86-4.85-1.71-7.25-2.6-.86-.32-1.67-.78-2.52-1.15-.5-.21-.64-.57-.61-1.08,.16-2.86,.36-5.73,.44-8.59,.04-1.36-.1-2.74-.25-4.1-.07-.56-.39-1.1-.56-1.66-.07-.22-.13-.55-.02-.7,.83-1.09,1.03-2.36,1.14-3.66,.33-3.8,.67-7.6,.99-11.4,.17-1.98,.4-3.95,.45-5.93,.06-2.28-.13-4.55-.73-6.77-.2-.74-.28-1.51-.4-2.26-.02-.14,.04-.28,.09-.6,.4,.39,.7,.66,.97,.95,1.76,1.93,3.46,3.93,5.29,5.79,1.69,1.72,3.43,3.44,5.34,4.9,3.89,2.96,8.33,4.68,13.21,5.21,3.42,.37,6.83,.38,10.24-.03,4.94-.58,9.67-2.02,14.37-3.56,.57-.19,1.15-.43,1.66-.75,.31-.19,.73-.65,.68-.88-.12-.5-.67-.34-1.06-.25-1.99,.44-3.98,.94-5.97,1.35-2.04,.42-4.1,.71-6.14,1.13-3.04,.63-6.1,1.01-9.18,.97-3.31-.05-6.61-.45-9.75-1.54-3.43-1.19-6.42-3.18-9.08-5.67-4.02-3.76-7.57-7.95-11.16-12.09-2.7-3.11-5.91-5.45-9.53-7.4-4.77-2.56-9.84-4.1-15.16-4.9-2.33-.35-4.67-.63-7.01-.89-.43-.05-.88,.14-1.33,.18Z"/><path class="cls-1" d="M72.64,58.18c1.24,.67,2.31,1.62,3.46,2.44,.23,.16,.47,.31,.71,.46l.17-.12c-.07-.19-.12-.41-.22-.57-.83-1.35-2.05-2.33-3.26-3.29-1.33-1.05-2.47-2.26-3.39-3.66-.91-1.38-1.8-2.77-2.68-4.16-.1-.16-.15-.35-.24-.58,1.13-.25,2.12-.03,3.01,.5,1.67,.99,3.32,2.03,4.94,3.1,1.18,.77,1.95,1.92,2.67,3.1,1.9,3.1,3.16,6.44,3.93,9.98,.04,.17,.11,.34,.13,.51,.02,.19-.02,.4-.03,.59-.18-.04-.39-.04-.54-.13-2.87-1.7-5.75-3.4-8.6-5.14-1.95-1.18-3.43-2.78-4.27-4.95-.43-1.11-1-2.18-1.49-3.27-.08-.18-.12-.38-.18-.57,.07-.03,.13-.06,.19-.08,.19,.29,.39,.56,.56,.86,1.27,2.12,2.93,3.8,5.14,4.98Z"/><path class="cls-3" d="M74.6,43.74c-.57,.39-1.11,.45-1.77,.4-2.6-.22-5.21-.42-7.82-.55-.67-.03-1.35,.2-2.02,.29-.2,.03-.47,.04-.62-.07-1.78-1.24-3.81-2.17-5.13-4-.15-.2-.35-.39-.44-.63-.11-.27-.17-.58-.16-.87,.02-.8,.12-1.61,.1-2.41-.02-.84-.4-1.56-1.01-2.14-.95-.88-1.9-1.76-2.89-2.61-2.31-1.96-4.67-3.85-6.94-5.86-2.55-2.25-5.02-4.59-7.52-6.9-.54-.5-.5-.63,.16-.92,1.75-.76,3.62-.86,5.47-1.08,4.02-.46,8.04-1,12.07-1.35,3.07-.27,6.16-.36,9.24-.43,2.93-.07,5.86-.02,8.79-.02v.07c3.82,0,7.64-.12,11.45,.03,4.45,.17,8.9,.56,13.35,.88,.42,.03,.84,.18,1.24,.34,.79,.33,.92,.82,.36,1.46-.94,1.06-1.91,2.1-2.86,3.14-3.05,3.32-6.3,6.43-9.67,9.42-.45,.4-.91,.54-1.51,.48-4.07-.43-8.15-.69-12.24-.43-1.78,.12-3.58,.17-5.33,.49-1.31,.24-2.55,.87-3.82,1.34-.16,.06-.34,.17-.42,.31-.16,.27-.24,.57-.36,.87,.27,.03,.55,.11,.82,.09,2.8-.2,5.61-.42,8.41-.64,4.02-.32,8.01-.08,12.01,.36,1.05,.12,1.14,.17,1.21,1.25,.07,1.26,.1,2.52,.17,3.77,.02,.4-.13,.63-.51,.74-.4,.11-.79,.25-1.19,.34-3.88,.83-7.37,2.57-10.61,4.82Zm-18.35-12.63c.27,0,.54-.02,.81-.03-.05-.27-.02-.58-.16-.79-.24-.37-.56-.72-.89-1.01-1.6-1.39-2.94-3.04-4.69-4.29-1.47-1.06-2.75-2.4-4.13-3.59-.32-.27-.72-.45-1.19-.74-.16,.19-.36,.33-.41,.5-.17,.6,.17,1.04,.52,1.48,2.75,3.42,6.27,5.93,9.87,8.34,.08,.06,.18,.12,.26,.13Z"/><path class="cls-3" d="M51.16,166.31c.1-.14,.26-.26,.28-.41,.04-.31,.01-.63,.01-.94,.02,0,.04,0,.06,0-.16-1.6-.35-3.2-.48-4.81-.36-4.42-.68-8.86-1.03-13.29-.23-2.86-.48-5.72-.75-8.57-.39-4.19-.78-8.38-1.22-12.56-.56-5.26-1.15-10.51-1.77-15.76-.13-1.11-.38-2.2-.62-3.3-.09-.42-.41-.66-.87-.64-.44,.02-.7,.27-.79,.67-.12,.51-.26,1.05-.23,1.57,.26,3.49,.5,6.98,.86,10.45,.34,3.18,.84,6.35,1.23,9.53,.37,3.01,.69,6.02,1.04,9.02,.24,2.05,.52,4.09,.74,6.15,.25,2.28,.4,4.58,.7,6.86,.22,1.69,.7,3.35,.92,5.04,.31,2.4,.49,4.81,.73,7.22,.12,1.19,.23,2.39,.83,3.47,.07,.13,.24,.21,.37,.31Zm35.92-7.56c1.2,.34,2.46,.56,3.7,.66,1.46,.11,2.94,.03,4.39,.03,0-.65-.04-1.26,.02-1.86,.05-.55-.19-.78-.69-.89-.38-.09-.74-.22-1.15-.35,.08-.24,.14-.43,.2-.61,.56-1.76,.41-3.45-.51-5.06-.47-.81-1.18-1.28-2.1-1.32-1.1-.05-2.2-.08-3.3,.02-1.84,.15-3.19,1.24-3.4,2.74-.13,.93-.12,1.88-.13,2.83-.03,2.05,1.1,3.28,2.96,3.82Zm-.24-25.14c1.22,.86,2.63,.97,4.06,.94,1.4-.04,1.4-.05,1.43-1.45,.03-1.51,.03-1.49-1.47-1.58-1.09-.06-2.14-.3-3.03-1-.46-.36-.65-.78-.49-1.39,.24-.89,.55-1.72,1.34-2.31-.29-.59-.57-1.15-.85-1.71-.44-.88-.94-1-1.48-.17-.64,.98-1.21,2.04-1.55,3.14-.58,1.9,.41,4.39,2.03,5.53Zm2.45-8.87c.7,.03,1.24,.11,1.76,.06,.53-.06,1.09-.16,1.57-.4,.49-.24,.66-.76,.53-1.32-.12-.52-.54-.69-1.01-.77-.69-.13-1.32,0-1.74,.58-.39,.55-.71,1.16-1.11,1.84Zm-2.67,21.91c1.47,.77,4.94,.09,5.89-1.27,.87-1.24,1.04-2.75,1.38-4.27h-2.33c-.03,.09-.05,.17-.07,.25l-1.32-.4,.08-.14v-3.82c-.34,0-.58-.05-.8,.01-1.08,.34-2.16,.68-3.23,1.05-.82,.29-1.31,.92-1.56,1.73-.12,.41-.21,.83-.3,1.26-.42,1.95,.17,3.6,1.51,5.02,.21,.22,.47,.42,.74,.56Zm-2.85,20.38c.05,1.18,.42,2.3,1.41,3.06,.98,.75,2.06,1.36,3.31,1.43,2.07,.12,4.15,.12,6.41,.17,0-.69,.03-1.45-.02-2.21-.01-.16-.28-.4-.46-.44-.45-.1-.92-.1-1.29-.13,.13-1.11,.37-2.16,.36-3.21-.02-2.72-2.07-4.5-4.74-4.11-1.04,.16-2.06,.5-3.07,.8-.93,.27-1.51,.96-1.67,1.89-.16,.9-.27,1.83-.24,2.75Zm-.23,10.56c-.86,1.93,.18,5.22,2.83,6.22,3.49,1.32,6.93-1.17,6.93-5.01-.01-1.8-.69-3.32-1.9-4.62-.53-.57-1.21-.85-2-.87-2.38-.07-4.65,1.39-5.57,3.58-.1,.23-.18,.48-.29,.71Zm-1.9,11.1c.44-.03,.89-.01,1.47-.01-.1,.28-.15,.41-.19,.53-.23,.77-.55,1.53-.67,2.31-.17,1.14-.19,2.34,.86,3.13,.8,.59,1.66,1.16,2.57,1.53,.64,.25,1.45,.33,2.13,.2,2.44-.48,4.12-1.91,4.92-4.32,.94-2.82-.34-5.18-3.27-5.58-2.56-.36-5.17-.41-7.75-.56-.14,0-.42,.24-.43,.38-.06,.67-.05,1.33-.07,2-.01,.31,.13,.41,.43,.39Zm-25.32-86.75c3,.24,6,.51,9.01,.59,2.94,.09,5.9,.03,8.84-.08,2.98-.12,5.97-.29,8.94-.58,2.4-.24,4.78-.71,7.17-1.05,4.84-.7,9.73-1.03,14.49-2.26,.46-.12,.65,.07,.86,.46,.68,1.26,.78,2.61,.83,4,.11,3.09,.03,6.17-.3,9.25-.51,4.81-1.02,9.62-1.5,14.43-.27,2.76-.51,5.52-.73,8.27-.12,1.49-.13,2.99-.28,4.47-.32,3.18-.81,6.36-1.01,9.55-.3,5-.39,10.02-.61,15.03-.22,4.95-.49,9.89-.76,14.84-.18,3.32-.38,6.63-.57,9.95-.17,2.81-.32,5.61-.9,8.38-.26,1.23-.48,2.47-.55,3.72-.16,2.81-.21,5.61-.31,8.43-.02,.49-.21,.81-.7,.97-.6,.19-1.19,.39-1.78,.61-7.68,2.9-15.65,4.08-23.82,3.93-2.57-.05-5.15-.19-7.72-.35-4.02-.26-7.9-1.06-11.5-2.99-.49-.26-1.06-.42-1.61-.53-.44-.09-.73-.03-.87,.18l-.64-.33c.12-.18,.31-.35,.34-.55,.08-.4,.11-.82,.1-1.23-.11-4.3-.3-8.6-.99-12.87-.48-3.01-.74-6.05-1.09-9.07-.34-2.85-.68-5.7-1-8.55-.25-2.27-.46-4.54-.68-6.8-.32-3.23-.66-6.45-.92-9.69-.36-4.33-.65-8.66-.97-13-.27-3.7-.52-7.41-.82-11.12-.39-4.86-.61-9.72-1.4-14.55-.73-4.38-1.25-8.8-1.86-13.2-.45-3.29-.92-6.58-1.36-9.87-.09-.62,.03-.71,.62-.62,2.83,.49,5.64,1.05,8.48,1.44,2.51,.36,5.04,.57,7.56,.78Z"/><path class="cls-1" d="M42.62,91.48c.48,.02,.69-.35,.79-.74,.15-.58,.32-1.18,.36-1.78,.18-3.32,.33-6.64,.48-9.95,.02,0,.04,0,.06,0-.06-.45-.07-.9-.17-1.34-.13-.54-.49-.89-1.09-.9-.58-.01-.97,.29-1.14,.84-.09,.3-.16,.62-.17,.92-.06,3.36-.13,6.72-.15,10.08,0,.7,.14,1.4,.27,2.1,.08,.39,.27,.77,.76,.78Zm28.64-28.4c2.56,1.61,5.19,3.11,7.78,4.67,1.73,1.05,3.44,2.14,5.17,3.18,.33,.2,.71,.34,1.09,.41,.58,.12,1.03-.24,1-.84-.02-.38-.1-.81-.31-1.11-1.48-2.22-2.17-4.71-2.72-7.29-.59-2.8-2.06-5.25-3.42-7.72-.34-.62-.75-1.2-1.11-1.81-.1-.17-.1-.39-.15-.58,.18-.03,.38-.11,.55-.08,3.17,.53,6.34,1.09,9.52,1.62,3.89,.65,7.25,2.59,10.72,4.29,2.28,1.11,4.16,2.75,6.09,4.32,.44,.37,.76,1.03,.88,1.61,.49,2.2,.88,4.42,1.32,6.64,.18,.91,.55,1.8,.57,2.7,.05,1.88-.03,3.77-.15,5.64-.17,2.53-.42,5.05-.66,7.58-.26,2.82-.54,5.63-.82,8.45-.06,.66-.41,.94-1.07,1.1-3.58,.86-7.21,1.4-10.85,1.88-4.07,.54-8.13,1.18-12.2,1.66-6.79,.79-13.62,.83-20.44,.47-3.94-.21-7.89-.51-11.8-1.05-3.45-.47-6.96-.76-10.31-1.83-.55-.17-.84-.44-.89-1-.3-3.03-.76-6.06-.88-9.09-.2-5.2-.21-10.41-.24-15.62-.03-3.16,1.15-5.92,2.9-8.51,2.07-3.06,4.6-5.68,7.43-8.01,.58-.47,1.13-.98,1.68-1.48,.5-.45,1.5-.41,1.92,.1,.07,.08,.08,.26,.04,.36-.08,.15-.21,.28-.34,.4-2.13,1.94-3.6,4.33-4.42,7.06-.99,3.26-2.6,6.18-4.59,8.91-.53,.73-1.14,1.4-1.67,2.13-.49,.69-.31,1.15,.54,1.29,.35,.06,.79,.02,1.07-.16,2.85-1.81,6.11-2.65,9.2-3.88,2.04-.81,4.01-1.8,5.99-2.75,.88-.42,1.72-.94,2.57-1.43,1.82-1.05,3.05-2.65,4.05-4.44,.57-1.02,.98-2.13,1.45-3.2,.08-.17,.17-.35,.33-.69,.26,.42,.5,.67,.61,.96,.85,2.31,2.56,3.9,4.57,5.17Z"/><path class="cls-1" d="M162.91,117.72c.8,0,1.61,.02,2.42,0,.29,0,.59-.04,.86-.14,.53-.19,.63-.59,.19-.93-.4-.3-.87-.61-1.34-.67-1.55-.23-3.12-.44-4.68-.48-1.68-.04-3.38,.11-5.06,.21-3.94,.25-7.8,.94-11.55,2.15-2.1,.68-4.04,1.65-5.67,3.16-.24,.22-.33,.62-.48,.93,.33-.02,.68,.04,.99-.05,3.12-.88,6.2-1.89,9.35-2.64,4.91-1.18,9.93-1.53,14.98-1.54Zm-17.56-70.04c4.26,1.06,8.6,1.36,12.98,1.33,0,.06,.01,.12,.02,.18,3.68-.27,7.39-.35,11.03-.88,4.28-.63,8.52-1.59,12.75-2.55,4.23-.96,8.42-2.11,12.45-3.74,.57-.23,1.11-.57,1.64-.92,.15-.1,.19-.37,.28-.56-.19-.07-.39-.2-.56-.18-.61,.07-1.22,.14-1.8,.3-5.55,1.59-11.13,3.04-16.84,3.94-3.55,.55-7.1,1.15-10.66,1.56-5.09,.58-10.21,.35-15.32,.29-1.94-.02-3.89-.09-5.83-.11-.45,0-1.03-.03-1.08,.64-.06,.67,.55,.62,.96,.72Zm6.82-6.03c1.88,.28,3.77,.51,4.77,.64,4.41-.11,7.87-.52,11.27-1.4,5.07-1.31,9.53-3.82,13.75-6.82,.34-.24,.63-.54,.91-.84,.25-.27,.7-.56,.36-.98-.34-.43-.72-.04-1.04,.14-1.89,1.05-3.7,2.26-5.65,3.15-6.33,2.89-13.03,4.29-19.96,4.61-1.43,.07-2.86,.08-4.29,.16-.4,.02-.97,0-1.04,.56-.08,.63,.51,.71,.92,.77ZM8.72,103.05c.15,.03,.32,0,.47,0,0,.01,0,.03,0,.04,.27-.04,.56-.03,.81-.12,1.33-.5,2.68-.99,3.98-1.57,2.7-1.19,5.37-2.42,8.03-3.68,.7-.33,1.4-.74,1.97-1.26,.75-.69,.47-1.73-.45-1.91-.29-.06-.66,.06-.95,.19-2.43,1.11-4.85,2.24-7.26,3.38-1.89,.89-3.8,1.78-5.64,2.77-.55,.3-.99,.88-1.38,1.41-.26,.35-.05,.68,.41,.74Zm-2.21-25.17c2.16,.1,4.32,.08,6.47,.06,2.47-.03,4.95-.06,7.41-.18,.73-.04,1.48-.34,2.17-.65,.54-.25,.46-.82-.09-1.07-.12-.06-.26-.11-.39-.12-1.21-.07-2.42-.13-3.63-.2,0,.06,0,.12,0,.18-1.17,0-2.35-.03-3.53,0-3.22,.08-6.44,.14-9.66,.27-1.01,.05-2.01,.27-3.02,.46-.17,.03-.31,.23-.46,.36,.16,.12,.31,.32,.48,.34,1.41,.2,2.83,.48,4.25,.54Zm7.8,42.63c.21,0,.44,.07,.61-.01,.44-.21,.87-.45,1.26-.74,1.95-1.49,3.88-3.02,5.84-4.5,1.8-1.36,3.64-2.67,5.44-4.04,.45-.34,.82-.79,1.16-1.24,.31-.43,.11-.76-.59-.75-.32,.14-.88,.28-1.35,.58-1.36,.86-2.71,1.74-4.01,2.7-2.72,2-5.43,4.03-7.72,6.53-.22,.24-.43,.51-.58,.8-.09,.18-.04,.43-.05,.65Zm12.01,16.5c.19,.08,.53,.05,.7-.08,.5-.38,1.03-.76,1.4-1.25,1.73-2.33,3.43-4.7,5.11-7.07,.26-.37,.39-.84,.62-1.37-.23-.3-.39-.7-.66-.82-.28-.12-.72-.05-1.03,.09-.26,.12-.49,.4-.66,.66-1.56,2.31-3.14,4.62-4.64,6.97-.44,.68-.68,1.49-.96,2.26-.07,.18,0,.57,.12,.63Zm-.94-73.59c.31,.22,.71,.35,1.08,.41,.6,.11,1.11-.4,1.12-.92-.05-.72-.39-1.16-.87-1.49-4.25-2.93-8.49-5.87-12.77-8.76-1.14-.77-2.38-1.38-3.75-1.63-.22-.04-.47,.05-.71,.08,.07,.24,.05,.57,.21,.72,.94,.88,1.85,1.82,2.89,2.57,2.33,1.67,4.75,3.21,7.09,4.86,1.93,1.35,3.79,2.79,5.71,4.16Zm117.72,62.64c.82-.01,1.65-.09,2.47-.17,2.98-.3,5.97-.61,8.96-.92l.02,.15c.57,0,1.14,.03,1.71-.01,.45-.03,1.03-.14,1.04-.66,0-.32-.41-.75-.75-.92-.48-.23-1.05-.32-1.59-.38-2.94-.34-5.88-.26-8.8,.23-1.27,.21-2.51,.54-3.52,1.39-.21,.18-.35,.63-.29,.91,.03,.17,.49,.37,.76,.37Zm83.92,100.72H.25V.25H227.02V226.78Zm-174.56-13.17c3.09,1.66,6.41,2.54,9.87,3,3.38,.44,6.78,.46,10.18,.56,3.7,.1,7.39-.08,11.06-.56,3.96-.52,7.87-1.29,11.55-2.94,1.06-.47,2.12-.93,3.17-1.41,.4-.18,.67-.17,.94,.24,.28,.44,.73,.44,1.09,.05,.13-.14,.22-.32,.33-.49,.45-.73,.91-1.45,1.32-2.21,.08-.14,.04-.49-.07-.57-.37-.26-.4-.59-.38-.99,.07-1.33,.13-2.67,.21-4,.12-2.16,.21-4.32,.4-6.47,.23-2.66,.58-5.31,.82-7.97,.21-2.41,.34-4.82,.5-7.23,.27-4.12,.56-8.23,.79-12.35,.14-2.65,.14-5.31,.26-7.96,.16-3.63,.38-7.26,.57-10.89,.09-1.63,.18-3.26,.29-4.89,.16-2.23,.35-4.46,.51-6.7,.2-2.64,.34-5.29,.62-7.93,.54-5.02,1.16-10.03,1.75-15.05,.06-.52,.28-.7,.75-.45,2.14,1.15,4.48,1.77,6.74,2.62,2.05,.78,4.14,1.43,6.34,1.46,1.96,.03,3.92-.13,5.87-.28,1.08-.09,1.65-.69,1.89-1.73,.07-.31,.11-.62,.13-.93,.05-.81,.32-1.53,.81-2.18,.76-1.01,1.76-1.65,2.93-2.08,4.65-1.73,9.45-2.91,14.25-4.11,3.68-.92,7.38-1.7,10.89-3.19,1.67-.71,3.4-1.31,5.14-1.86,1.55-.48,3.15-.83,4.73-1.19,.37-.09,.8-.09,1.15,.03,3.46,1.07,6.96,1.92,10.58,2.26,2.64,.25,5.26,.62,7.93,.43,3.42-.25,6.66-1.11,9.69-2.72,5.49-2.91,9.22-7.36,11.34-13.18,1.1-3.02,2.11-6.08,3.14-9.13,.39-1.15,1-2.16,1.84-3.06,.57-.61,1.06-1.31,1.53-2.01,.65-.98,.65-1.06,1.81-.78,1.7,.41,3.15-.06,4.45-1.11,1.79-1.45,2.41-3.36,1.97-5.58-.28-1.44-1.31-2.42-2.49-3.17-1.7-1.09-2.76-2.66-3.6-4.42-.66-1.37-.97-2.81-.75-4.35,.19-1.34,.94-2.44,1.52-3.61,.27-.55,.44-1.23,.43-1.85-.02-1.04-1.05-1.63-2.03-1.28-.26,.09-.51,.22-.77,.29-3.34,.95-6.68,1.91-10.03,2.84-4.26,1.19-8.58,2.07-12.97,2.63-3.75,.47-7.5,.89-11.28,.86-3.99-.03-7.98-.1-11.97-.31-3.32-.17-6.64-.37-9.92-.88-6.05-.94-12.09-2-18.09-3.23-4.16-.86-8.28-2-12.38-3.17-4.83-1.38-9.61-2.93-14.43-4.37-3.6-1.08-7.2-2.12-10.52-3.91-2.2-1.19-4.58-1.91-7.08-2.03-2.41-.11-4.83-.08-7.24-.1-.99,0-1.04-.03-1.1-1.05-.08-1.3-.12-2.59-.27-3.88-.07-.57,.04-1,.45-1.37,.98-.88,2-1.72,2.93-2.65,2.52-2.51,5.01-5.05,7.48-7.61,1.05-1.09,1.99-2.27,2.98-3.42,.45-.52,.52-1.09,.29-1.75-.52-1.46-1.46-2.51-3-2.8-1.4-.27-2.83-.43-4.26-.52-3.88-.25-7.76-.54-11.65-.63-5.27-.12-10.54-.06-15.81-.06-4.07,0-8.14-.08-12.2,.35-3.13,.34-6.25,.66-9.37,1.03-2.11,.25-4.2,.64-6.31,.84-1.53,.15-2.87,.77-4.24,1.35-.35,.15-.7,.49-.87,.84s-.29,.88-.15,1.21c.34,.76,.71,1.59,1.3,2.15,3.54,3.32,7.13,6.6,10.75,9.83,2.17,1.94,4.41,3.79,6.62,5.69,.49,.42,.72,.91,.47,1.64-.22-.04-.4-.04-.55-.1-2.82-.97-5.18-.07-7.23,1.86-1.72,1.62-2.74,3.67-3.36,5.93-.13,.48-.18,1.02-.1,1.51,.17,1.05-.12,1.91-.85,2.62-1.92,1.87-2.28,5.69-.99,7.8,.11,.18,.09,.54-.03,.73-.32,.52-.68,1.01-1.07,1.48-1.73,2.11-3.3,4.32-4.11,6.96-.71,2.32-.92,4.69-.84,7.15,.18,5.7,0,11.41,.65,17.09,.56,4.95,1.1,9.92,1.73,14.86,.51,4.02,1.13,8.01,1.7,12.02,.5,3.44,1.03,6.87,1.48,10.32,.37,2.8,.72,5.61,.97,8.43,.32,3.54,.53,7.09,.76,10.64,.28,4.22,.52,8.44,.8,12.65,.2,3.1,.42,6.19,.67,9.29,.17,2.12,.4,4.23,.63,6.33,.36,3.28,.73,6.56,1.13,9.83,.29,2.34,.68,4.66,.95,7.01,.18,1.62,.15,3.26,.33,4.88,.34,3.14,.76,6.27,1.13,9.42,.19,1.58,.7,3.06,1.37,4.48,.08,.17,.33,.26,.5,.39l.64,.33c-.11,.18-.11,.45,0,.82,.24,.78,.82,1.27,1.52,1.64Z"/><path class="cls-1" d="M62.42,50.08c-2.62,5.15-6.35,9.39-10.79,13.03-.39,.32-.71,.74-.97,1.16-.29,.47-.11,.78,.43,.76,.46-.03,.94-.1,1.37-.27,1.73-.69,3.2-1.76,4.44-3.14,1.13-1.25,2.34-2.45,3.36-3.79,1.13-1.48,2.09-3.09,3.12-4.64,.15-.23,.29-.46,.44-.7,.06,.03,.11,.06,.16,.08,.02,.12,.05,.23,.05,.35-.2,3.1-.74,6.12-2.95,8.5-.75,.81-1.64,1.53-2.57,2.13-3.49,2.22-7.33,3.66-11.24,4.94-.13,.05-.29,.01-.44,.02,.02-.16-.03-.36,.05-.47,1.23-1.91,1.95-4.02,2.6-6.16,.84-2.73,2.65-4.84,4.65-6.79,2.11-2.06,4.5-3.75,7.14-5.06,.38-.19,.79-.28,1.33-.46-.11,.28-.14,.4-.2,.51Z"/><path class="cls-2" d="M56.01,29.29c.34,.29,.65,.64,.89,1.01,.14,.21,.11,.52,.16,.79-.27,.01-.54,.03-.81,.03-.09,0-.18-.07-.26-.13-3.6-2.41-7.12-4.92-9.87-8.34-.36-.44-.69-.88-.52-1.48,.05-.17,.24-.31,.41-.5,.47,.29,.87,.47,1.19,.74,1.38,1.19,2.65,2.53,4.13,3.59,1.75,1.25,3.09,2.9,4.69,4.29Z"/><path class="cls-1" d="M54.57,40.22c1.38,2.2,3.5,3.56,5.58,4.99,.52,.35,1.01,.75,1.49,1.15,.44,.36,.43,.6-.06,.83-.98,.45-1.97,.88-2.97,1.29-.18,.07-.48,.03-.66-.08-.44-.28-.84-.63-1.28-.95-1.36-1-2.72-2-4.09-2.97-.36-.26-.64-.1-.59,.33,.05,.42,.14,.89,.39,1.21,.93,1.18,1.93,2.32,2.91,3.47,.17,.21,.37,.4,.55,.59-.34,.79-1.32,1.42-2.12,1.42-1.1,.01-2.12-.21-3.08-.82-1.2-.78-2.59-1.11-3.98-1.38-.17-.04-.37,.03-.55,.05-.02,.05-.04,.1-.06,.15l-.77-.17c.41-.72,.54-1.57,.5-2.44-.13-2.8,1.25-4.9,3.18-6.67,.98-.89,2.22-1.42,3.58-1.14,.64,.13,1.21,.6,1.8,.92,.09,.05,.16,.12,.21,.2Z"/><path class="cls-2" d="M51.43,165.9c-.02,.15-.18,.27-.28,.41-.12-.1-.29-.18-.37-.31-.59-1.08-.71-2.27-.83-3.47-.24-2.41-.42-4.82-.73-7.22-.22-1.69-.7-3.35-.92-5.04-.3-2.28-.45-4.58-.7-6.86-.22-2.05-.5-4.1-.74-6.15-.35-3.01-.67-6.02-1.04-9.02-.39-3.18-.89-6.35-1.23-9.53-.36-3.48-.61-6.97-.86-10.45-.04-.51,.11-1.05,.23-1.57,.09-.39,.35-.65,.79-.67,.47-.02,.78,.22,.87,.64,.24,1.09,.49,2.19,.62,3.3,.62,5.25,1.21,10.5,1.77,15.76,.44,4.18,.82,8.37,1.22,12.56,.27,2.86,.52,5.72,.75,8.57,.36,4.43,.68,8.86,1.03,13.29,.13,1.61,.32,3.21,.48,4.81-.02,0-.04,0-.06,0,0,.32,.03,.63-.01,.94Z"/><path class="cls-1" d="M47.7,50.62c.81,.55,.82,.71,.08,1.32-1.24,1.03-2.46,2.07-3.68,3.12-.42,.36-.73,.3-.85-.24-.09-.41-.05-.84-.04-1.27,.02-1.34,.46-2.45,1.47-3.4,.26-.24,.47-.52,.63-.81l.77,.17c.54,.37,1.09,.75,1.63,1.11Z"/><path class="cls-2" d="M44.13,77.66c.11,.44,.12,.89,.17,1.34-.02,0-.04,0-.06,0-.15,3.32-.3,6.64-.48,9.95-.04,.6-.2,1.2-.36,1.78-.1,.39-.31,.75-.79,.74-.49-.01-.68-.39-.76-.78-.13-.69-.28-1.4-.27-2.1,.02-3.36,.09-6.72,.15-10.08,0-.31,.08-.62,.17-.92,.17-.54,.55-.85,1.14-.84,.6,0,.96,.36,1.09,.9Z"/><path class="cls-2" d="M52.46,64.77c-.43,.17-.91,.24-1.37,.27-.54,.03-.73-.29-.43-.76,.26-.43,.58-.84,.97-1.16,4.44-3.65,8.16-7.89,10.79-13.03,.06-.11,.09-.23,.2-.51-.54,.18-.96,.27-1.33,.46-2.64,1.31-5.03,3-7.14,5.06-1.99,1.96-3.81,4.06-4.65,6.79-.66,2.15-1.38,4.26-2.6,6.16-.08,.12-.03,.32-.05,.47,.15,0,.31,.03,.44-.02,3.91-1.28,7.75-2.72,11.24-4.94,.93-.59,1.82-1.32,2.57-2.13,2.21-2.38,2.75-5.4,2.95-8.5,0-.12-.03-.23-.05-.35-.05-.03-.11-.05-.16-.08-.15,.23-.29,.47-.44,.7-1.03,1.55-1.99,3.16-3.12,4.64-1.02,1.34-2.23,2.54-3.36,3.79-1.25,1.38-2.72,2.45-4.44,3.14Zm27.4-10.4c1.36,2.48,2.83,4.92,3.42,7.72,.54,2.58,1.23,5.07,2.72,7.29,.21,.31,.29,.74,.31,1.11,.03,.6-.42,.96-1,.84-.38-.07-.76-.21-1.09-.41-1.73-1.05-3.44-2.14-5.17-3.18-2.59-1.57-5.22-3.06-7.78-4.67-2-1.27-3.71-2.85-4.57-5.17-.11-.29-.35-.54-.61-.96-.16,.35-.25,.52-.33,.69-.48,1.07-.88,2.19-1.45,3.2-1,1.78-2.23,3.39-4.05,4.44-.85,.49-1.69,1.01-2.57,1.43-1.98,.95-3.95,1.94-5.99,2.75-3.09,1.23-6.35,2.07-9.2,3.88-.28,.18-.72,.22-1.07,.16-.84-.13-1.03-.6-.54-1.29,.53-.73,1.14-1.4,1.67-2.13,1.98-2.74,3.6-5.65,4.59-8.91,.82-2.74,2.29-5.12,4.42-7.06,.13-.12,.26-.25,.34-.4,.05-.09,.03-.28-.04-.36-.42-.51-1.42-.55-1.92-.1-.55,.5-1.1,1.01-1.68,1.48-2.84,2.33-5.36,4.95-7.43,8.01-1.75,2.58-2.92,5.35-2.9,8.51,.04,5.21,.05,10.42,.24,15.62,.12,3.04,.58,6.06,.88,9.09,.06,.56,.34,.82,.89,1,3.36,1.06,6.86,1.35,10.31,1.83,3.91,.54,7.86,.84,11.8,1.05,6.82,.37,13.64,.33,20.44-.47,4.08-.47,8.13-1.12,12.2-1.66,3.64-.48,7.27-1.02,10.85-1.88,.66-.16,1.01-.44,1.07-1.1,.27-2.82,.56-5.63,.82-8.45,.24-2.52,.49-5.04,.66-7.58,.13-1.88,.2-3.76,.15-5.64-.02-.91-.39-1.8-.57-2.7-.44-2.21-.82-4.44-1.32-6.64-.13-.58-.44-1.25-.88-1.61-1.93-1.57-3.8-3.21-6.09-4.32-3.47-1.7-6.83-3.64-10.72-4.29-3.18-.53-6.35-1.09-9.52-1.62-.18-.03-.37,.05-.55,.08,.05,.19,.05,.41,.15,.58,.36,.61,.77,1.19,1.11,1.81Zm-4.75-4.94c.27,.12,.63,.09,.95,.07,.45-.04,.9-.23,1.33-.18,2.34,.26,4.68,.54,7.01,.89,5.32,.8,10.38,2.34,15.16,4.9,3.62,1.95,6.84,4.29,9.53,7.4,3.6,4.14,7.14,8.33,11.16,12.09,2.66,2.49,5.65,4.48,9.08,5.67,3.14,1.09,6.44,1.49,9.75,1.54,3.08,.04,6.15-.35,9.18-.97,2.04-.42,4.1-.71,6.14-1.13,2-.41,3.98-.91,5.97-1.35,.39-.09,.94-.24,1.06,.25,.06,.23-.37,.69-.68,.88-.51,.32-1.09,.56-1.66,.75-4.7,1.55-9.43,2.98-14.37,3.56-3.4,.4-6.82,.39-10.24,.03-4.88-.53-9.32-2.25-13.21-5.21-1.91-1.46-3.65-3.18-5.34-4.9-1.84-1.86-3.53-3.85-5.29-5.79-.27-.29-.57-.56-.97-.95-.05,.32-.11,.46-.09,.6,.12,.75,.2,1.52,.4,2.26,.59,2.22,.78,4.5,.73,6.77-.05,1.98-.28,3.96-.45,5.93-.32,3.8-.66,7.6-.99,11.4-.11,1.3-.31,2.57-1.14,3.66-.11,.15-.05,.48,.02,.7,.17,.56,.49,1.1,.56,1.66,.15,1.36,.29,2.74,.25,4.1-.08,2.87-.28,5.73-.44,8.59-.03,.51,.11,.86,.61,1.08,.84,.37,1.65,.83,2.52,1.15,2.41,.89,4.83,1.74,7.25,2.6,1.32,.47,2.67,.66,4.06,.56,.31-.02,.61-.12,.91-.18,0-.06,0-.12,.01-.18-.18-.13-.35-.29-.54-.4-1.52-.91-3.06-1.77-4.56-2.72-2.02-1.26-4.05-2.52-5.57-4.4-.18-.21-.18-.57-.26-.87,.26,.07,.57,.07,.79,.2,1.76,1.08,3.45,2.3,5.27,3.24,2.52,1.3,5.15,2.42,7.73,3.6,.72,.33,.8,.28,1.04-.48,.33-1.09,.84-2.06,1.67-2.87,1.35-1.32,3.04-2.05,4.78-2.57,4.16-1.21,8.35-2.32,12.54-3.45,3.18-.85,6.42-1.48,9.51-2.7,2.43-.96,4.9-1.78,7.35-2.66,.1-.04,.19-.11,.42-.26-.35-.18-.57-.35-.83-.42-3.68-1-7.33-2.08-11.17-2.33-3.05-.19-6.09-.27-9.1,.39-1.94,.42-3.84,.98-5.79,1.36-.97,.19-1.98,.16-2.98,.19-.17,0-.44-.17-.49-.32-.05-.15,.08-.43,.21-.54,.35-.28,.72-.55,1.12-.74,3.88-1.8,8-2.71,12.24-2.92,3.65-.18,7.28,.14,10.83,1.03,3.62,.91,7.17,2.02,10.76,3.03,2.7,.76,5.39,1.59,8.12,2.2,1.89,.42,3.85,.48,5.78,.76,3.15,.44,6.27,.37,9.36-.43,7.04-1.81,11.84-6.19,14.62-12.82,1-2.38,1.71-4.89,2.55-7.33,.85-2.47,1.66-4.97,3.61-6.87,.19-.19,.33-.44,.48-.67,.33-.48,.22-.71-.34-.79-2.92-.43-5.86-.58-8.82-.38-2.59,.17-5.17,.42-7.69,1.05-3.67,.91-6.94,2.71-10.25,4.41-.19,.1-.45,.05-.68,.08,.08-.24,.09-.55,.24-.71,.36-.37,.78-.66,1.18-.97,3.44-2.67,7.21-4.71,11.51-5.57,5.71-1.14,11.42-.84,17.12,.05,1.12,.17,2.26,.41,3.38,.4,1.72-.02,2.92-1.42,2.76-3.08-.11-1.12-.81-1.92-1.73-2.47-1.2-.71-2.1-1.71-2.88-2.83-2.44-3.48-3.3-7.16-1.42-11.2,.05-.11,.07-.33,.01-.37-.11-.07-.28-.08-.42-.04-1.87,.52-3.74,1.05-5.6,1.6-5.17,1.5-10.39,2.74-15.75,3.42-4.55,.57-9.1,1.06-13.69,.94-4.01-.1-8.01-.25-12.02-.42-1.71-.07-3.42-.14-5.12-.37-3.67-.51-7.33-1.13-11-1.71-6.72-1.06-13.35-2.49-19.9-4.33-5.44-1.53-10.83-3.26-16.26-4.82-4.52-1.3-9-2.64-13.14-4.94-.43-.23-.9-.39-1.36-.54-3.98-1.32-8.05-1.2-12.14-.76-3.51,.38-6.8,1.55-10,3-2.17,.98-3.96,2.47-5.62,4.13-.36,.36-.38,.67,.07,.96,.41,.26,.79,.59,1.24,.79Zm-1.61,7.66c1.22,.96,2.43,1.94,3.26,3.29,.11,.17,.15,.38,.22,.57l-.17,.12c-.23-.15-.48-.3-.71-.46-1.15-.82-2.23-1.77-3.46-2.44-2.21-1.18-3.87-2.86-5.14-4.98-.17-.29-.38-.57-.56-.86-.07,.03-.13,.05-.19,.08,.06,.19,.1,.39,.18,.57,.49,1.09,1.06,2.16,1.49,3.27,.84,2.17,2.32,3.77,4.27,4.95,2.85,1.74,5.73,3.43,8.6,5.14,.15,.09,.36,.09,.54,.13,.02-.2,.05-.4,.03-.59-.02-.17-.09-.34-.13-.51-.76-3.54-2.03-6.88-3.93-9.98-.72-1.18-1.49-2.33-2.67-3.1-1.63-1.07-3.27-2.11-4.94-3.1-.88-.53-1.87-.75-3.01-.5,.09,.23,.14,.42,.24,.58,.89,1.39,1.77,2.78,2.68,4.16,.93,1.4,2.06,2.61,3.39,3.66Zm-20.08,154.41c3.6,1.93,7.48,2.73,11.5,2.99,2.57,.16,5.15,.31,7.72,.35,8.18,.15,16.14-1.02,23.82-3.93,.59-.22,1.18-.42,1.78-.61,.48-.16,.68-.48,.7-.97,.09-2.81,.14-5.62,.31-8.43,.07-1.25,.29-2.5,.55-3.72,.58-2.77,.73-5.57,.9-8.38,.2-3.32,.4-6.63,.57-9.95,.26-4.95,.53-9.89,.76-14.84,.22-5.01,.31-10.03,.61-15.03,.19-3.19,.69-6.37,1.01-9.55,.15-1.48,.16-2.98,.28-4.47,.22-2.76,.46-5.52,.73-8.27,.48-4.81,.99-9.62,1.5-14.43,.33-3.08,.41-6.16,.3-9.25-.05-1.38-.16-2.74-.83-4-.21-.39-.41-.58-.86-.46-4.75,1.23-9.65,1.56-14.49,2.26-2.39,.35-4.77,.81-7.17,1.05-2.97,.29-5.96,.47-8.94,.58-2.94,.11-5.9,.17-8.84,.08-3.01-.09-6.01-.35-9.01-.59-2.52-.21-5.05-.43-7.56-.78-2.84-.4-5.65-.95-8.48-1.44-.58-.1-.7,0-.62,.62,.45,3.29,.91,6.58,1.36,9.87,.62,4.4,1.13,8.81,1.86,13.2,.8,4.83,1.01,9.69,1.4,14.55,.3,3.71,.55,7.41,.82,11.12,.32,4.33,.61,8.67,.97,13,.26,3.23,.61,6.46,.92,9.69,.22,2.27,.43,4.54,.68,6.8,.32,2.85,.66,5.7,1,8.55,.35,3.03,.61,6.07,1.09,9.07,.69,4.27,.87,8.56,.99,12.87,.01,.41-.02,.83-.1,1.23-.04,.2-.22,.37-.34,.55-.17-.13-.42-.22-.5-.39-.67-1.43-1.18-2.91-1.37-4.48-.38-3.14-.79-6.27-1.13-9.42-.17-1.62-.15-3.26-.33-4.88-.26-2.34-.66-4.67-.95-7.01-.4-3.27-.77-6.55-1.13-9.83-.23-2.11-.46-4.22-.63-6.33-.25-3.1-.46-6.19-.67-9.29-.28-4.22-.52-8.44-.8-12.65-.23-3.55-.45-7.1-.76-10.64-.25-2.82-.59-5.62-.97-8.43-.46-3.45-.99-6.89-1.48-10.32-.57-4.01-1.19-8-1.7-12.02-.63-4.95-1.17-9.91-1.73-14.86-.65-5.68-.47-11.39-.65-17.09-.08-2.46,.13-4.83,.84-7.15,.81-2.64,2.37-4.86,4.11-6.96,.39-.47,.75-.96,1.07-1.48,.11-.19,.13-.55,.03-.73-1.29-2.11-.93-5.93,.99-7.8,.74-.71,1.03-1.58,.85-2.62-.08-.49-.03-1.03,.1-1.51,.62-2.26,1.63-4.31,3.36-5.93,2.05-1.93,4.41-2.83,7.23-1.86,.16,.06,.34,.06,.55,.1,.25-.73,.02-1.22-.47-1.64-2.21-1.9-4.45-3.75-6.62-5.69-3.62-3.24-7.21-6.51-10.75-9.83-.59-.55-.97-1.38-1.3-2.15-.14-.33-.03-.86,.15-1.21s.52-.69,.87-.84c1.36-.58,2.71-1.21,4.24-1.35,2.11-.2,4.2-.59,6.31-.84,3.12-.37,6.24-.69,9.37-1.03,4.06-.43,8.13-.36,12.2-.35,5.27,0,10.54-.06,15.81,.06,3.88,.09,7.77,.38,11.65,.63,1.43,.09,2.86,.24,4.26,.52,1.54,.29,2.48,1.34,3,2.8,.23,.66,.16,1.23-.29,1.75-.99,1.15-1.93,2.33-2.98,3.42-2.47,2.56-4.96,5.1-7.48,7.61-.93,.93-1.95,1.77-2.93,2.65-.42,.37-.52,.79-.45,1.37,.15,1.29,.19,2.58,.27,3.88,.06,1.02,.11,1.04,1.1,1.05,2.42,.02,4.83-.02,7.24,.1,2.5,.12,4.88,.84,7.08,2.03,3.33,1.8,6.93,2.83,10.52,3.91,4.82,1.44,9.6,2.99,14.43,4.37,4.1,1.16,8.21,2.31,12.38,3.17,6,1.23,12.04,2.29,18.09,3.23,3.27,.51,6.6,.72,9.92,.88,3.98,.21,7.97,.28,11.97,.31,3.78,.03,7.53-.39,11.28-.86,4.39-.55,8.71-1.44,12.97-2.63,3.35-.93,6.69-1.89,10.03-2.84,.26-.08,.51-.2,.77-.29,.99-.35,2.02,.24,2.03,1.28,.01,.62-.16,1.29-.43,1.85-.58,1.17-1.33,2.27-1.52,3.61-.22,1.54,.09,2.97,.75,4.35,.84,1.76,1.89,3.34,3.6,4.42,1.17,.75,2.21,1.73,2.49,3.17,.44,2.22-.18,4.13-1.97,5.58-1.3,1.05-2.75,1.52-4.45,1.11-1.15-.27-1.15-.2-1.81,.78-.47,.7-.96,1.4-1.53,2.01-.84,.89-1.44,1.9-1.84,3.06-1.03,3.05-2.04,6.11-3.14,9.13-2.12,5.81-5.86,10.27-11.34,13.18-3.03,1.61-6.26,2.46-9.69,2.72-2.67,.19-5.29-.18-7.93-.43-3.62-.34-7.12-1.19-10.58-2.26-.36-.11-.79-.11-1.15-.03-1.58,.37-3.18,.71-4.73,1.19-1.74,.54-3.47,1.14-5.14,1.86-3.51,1.49-7.22,2.27-10.89,3.19-4.8,1.19-9.6,2.38-14.25,4.11-1.17,.43-2.18,1.07-2.93,2.08-.49,.65-.76,1.37-.81,2.18-.02,.31-.06,.63-.13,.93-.23,1.05-.8,1.65-1.89,1.73-1.95,.15-3.92,.31-5.87,.28-2.2-.03-4.29-.68-6.34-1.46-2.25-.85-4.6-1.47-6.74-2.62-.46-.25-.69-.08-.75,.45-.58,5.01-1.21,10.02-1.75,15.05-.28,2.63-.41,5.28-.62,7.93-.17,2.24-.35,4.47-.51,6.7-.11,1.63-.2,3.25-.29,4.89-.2,3.63-.41,7.26-.57,10.89-.12,2.65-.12,5.31-.26,7.96-.23,4.12-.52,8.23-.79,12.35-.16,2.41-.28,4.83-.5,7.23-.23,2.66-.59,5.31-.82,7.97-.19,2.15-.27,4.31-.4,6.47-.08,1.33-.14,2.67-.21,4-.02,.39,.01,.72,.38,.99,.11,.08,.15,.43,.07,.57-.41,.75-.87,1.47-1.32,2.21-.1,.17-.19,.35-.33,.49-.36,.39-.81,.39-1.09-.05-.27-.42-.54-.43-.94-.24-1.05,.48-2.12,.95-3.17,1.41-3.68,1.65-7.59,2.42-11.55,2.94-3.67,.48-7.36,.66-11.06,.56-3.4-.1-6.8-.12-10.18-.56-3.46-.46-6.78-1.33-9.87-3-.7-.38-1.27-.86-1.52-1.64-.12-.37-.12-.65,0-.82,.14-.2,.43-.27,.87-.18,.55,.11,1.12,.26,1.61,.53Zm3.26-164.06c.43,.32,.83,.67,1.28,.95,.17,.11,.47,.15,.66,.08,1-.41,1.99-.84,2.97-1.29,.49-.23,.5-.47,.06-.83-.49-.4-.98-.8-1.49-1.15-2.08-1.42-4.2-2.79-5.58-4.99-.05-.08-.13-.16-.21-.2-.59-.32-1.16-.79-1.8-.92-1.36-.28-2.6,.25-3.58,1.14-1.94,1.77-3.31,3.87-3.18,6.67,.04,.87-.1,1.72-.5,2.44-.16,.29-.37,.56-.63,.81-1.01,.95-1.45,2.06-1.47,3.4,0,.43-.05,.86,.04,1.27,.13,.54,.43,.6,.85,.24,1.22-1.05,2.45-2.09,3.68-3.12,.74-.62,.74-.77-.08-1.32-.54-.37-1.09-.74-1.63-1.11,.02-.05,.04-.1,.06-.15,.18-.02,.38-.09,.55-.05,1.39,.26,2.78,.59,3.98,1.38,.96,.62,1.97,.83,3.08,.82,.8,0,1.78-.64,2.12-1.42-.18-.19-.38-.39-.55-.59-.98-1.15-1.98-2.29-2.91-3.47-.25-.32-.35-.79-.39-1.21-.05-.43,.23-.59,.59-.33,1.38,.97,2.74,1.97,4.09,2.97Zm-.96-13.67c.61,.57,1,1.29,1.01,2.14,.02,.8-.09,1.6-.1,2.41,0,.29,.06,.61,.16,.87,.09,.23,.29,.42,.44,.63,1.32,1.83,3.35,2.76,5.13,4,.15,.1,.42,.09,.62,.07,.68-.09,1.36-.33,2.02-.29,2.61,.13,5.22,.33,7.82,.55,.66,.06,1.2,0,1.77-.4,3.24-2.25,6.72-3.98,10.61-4.82,.4-.09,.79-.23,1.19-.34,.38-.11,.53-.34,.51-.74-.07-1.26-.1-2.52-.17-3.77-.07-1.07-.16-1.13-1.21-1.25-4-.44-7.99-.67-12.01-.36-2.8,.21-5.61,.43-8.41,.64-.27,.02-.55-.06-.82-.09,.12-.29,.2-.6,.36-.87,.08-.14,.26-.24,.42-.31,1.27-.47,2.51-1.09,3.82-1.34,1.75-.32,3.55-.37,5.33-.49,4.1-.26,8.18,0,12.24,.43,.59,.06,1.05-.08,1.51-.48,3.37-2.99,6.62-6.1,9.67-9.42,.96-1.04,1.93-2.07,2.86-3.14,.56-.64,.44-1.13-.36-1.46-.4-.16-.82-.31-1.24-.34-4.45-.32-8.9-.71-13.35-.88-3.81-.15-7.63-.03-11.45-.03v-.07c-2.93,0-5.86-.06-8.79,.02-3.08,.07-6.17,.16-9.24,.43-4.03,.35-8.05,.88-12.07,1.35-1.85,.21-3.72,.32-5.47,1.08-.67,.29-.7,.42-.16,.92,2.5,2.3,4.97,4.65,7.52,6.9,2.27,2,4.63,3.9,6.94,5.86,.99,.84,1.94,1.72,2.89,2.61Z"/><path class="cls-2" d="M33.48,126.41c.27,.12,.43,.52,.66,.82-.23,.53-.36,1-.62,1.37-1.68,2.37-3.38,4.74-5.11,7.07-.37,.49-.9,.87-1.4,1.25-.17,.13-.51,.16-.7,.08-.12-.06-.19-.44-.12-.63,.28-.77,.52-1.58,.96-2.26,1.5-2.35,3.08-4.66,4.64-6.97,.17-.25,.39-.54,.66-.66,.31-.13,.75-.21,1.03-.09Z"/><path class="cls-2" d="M22.47,76.04c.55,.25,.64,.82,.09,1.07-.68,.31-1.43,.61-2.17,.65-2.47,.13-4.94,.16-7.41,.18-2.16,.02-4.32,.05-6.47-.06-1.42-.07-2.84-.34-4.25-.54-.17-.03-.32-.22-.48-.34,.15-.12,.29-.33,.46-.36,1-.18,2.01-.41,3.02-.46,3.22-.13,6.44-.2,9.66-.27,1.17-.03,2.35,0,3.53,0,0-.06,0-.12,0-.18,1.21,.07,2.42,.13,3.63,.2,.13,.01,.27,.06,.39,.12Z"/><path class="cls-2" d="M28.01,109.24c.71-.02,.9,.32,.59,.75-.34,.45-.71,.91-1.16,1.24-1.8,1.37-3.64,2.67-5.44,4.04-1.96,1.48-3.88,3.01-5.84,4.5-.39,.29-.82,.53-1.26,.74-.17,.08-.4,.01-.61,.01,.01-.22-.04-.47,.05-.65,.15-.29,.36-.56,.58-.8,2.3-2.51,5.01-4.53,7.72-6.53,1.3-.96,2.65-1.84,4.01-2.7,.47-.3,1.03-.45,1.35-.58Z"/><path class="cls-2" d="M26.71,61.42c.49,.34,.83,.78,.87,1.49,0,.52-.52,1.02-1.12,.92-.38-.07-.78-.19-1.08-.41-1.92-1.37-3.78-2.81-5.71-4.16-2.34-1.65-4.76-3.19-7.09-4.86-1.04-.75-1.95-1.68-2.89-2.57-.16-.15-.14-.48-.21-.72,.23-.03,.48-.12,.71-.08,1.37,.25,2.61,.86,3.75,1.63,4.28,2.89,8.52,5.83,12.77,8.76Z"/><path class="cls-2" d="M22.59,94.75c.28-.13,.65-.24,.95-.19,.92,.17,1.2,1.22,.45,1.91-.57,.52-1.27,.93-1.97,1.26-2.66,1.26-5.33,2.49-8.03,3.68-1.3,.58-2.65,1.06-3.98,1.57-.25,.1-.54,.09-.81,.12,0-.01,0-.03,0-.04-.15,0-.32,.02-.47,0-.45-.06-.67-.39-.41-.74,.39-.52,.82-1.11,1.38-1.41,1.85-.99,3.75-1.88,5.64-2.77,2.41-1.14,4.83-2.27,7.26-3.38Z"/></g></g></svg>