<?xml version="1.0" encoding="UTF-8"?>
<svg xmlns="http://www.w3.org/2000/svg" width="32" height="32" fill="none" viewBox="0 0 32 32">
  <path stroke="#1A3065" stroke-linecap="round" stroke-linejoin="round" stroke-width="2" d="M19.9 6.81c-1.44.25-2.3.93-2.8 1.8-.65 1.15-.88 2.12-1 4.57C11.02 12.33 7 7.73 7 7.73c-1.7 9.35 5.37 12.67 5.37 12.67C10.67 22.95 7 23.41 7 23.41s2.13 1.84 5.53 1.84a12.4 12.4 0 0 0 8.9-3.45c2.51-2.36 3.7-5.65 3.92-9.1l2.86-3.12H24.5c-.4-.9-.96-1.86-1.82-2.3a4.2 4.2 0 0 0-2.77-.47Z"></path>
</svg>
